<svg width="1280" height="720" xmlns="http://www.w3.org/2000/svg" xmlns:xlink="http://www.w3.org/1999/xlink" overflow="hidden"><defs><clipPath id="clip0"><rect x="0" y="0" width="1280" height="720"/></clipPath><clipPath id="clip1"><rect x="-2" y="3" width="1280" height="720"/></clipPath><clipPath id="clip2"><rect x="-2" y="3" width="1280" height="720"/></clipPath><clipPath id="clip3"><rect x="-2" y="3" width="1280" height="720"/></clipPath><linearGradient x1="-2" y1="363" x2="1278" y2="363" gradientUnits="userSpaceOnUse" spreadMethod="pad" id="fill4"><stop offset="0" stop-color="#293041"/><stop offset="1" stop-color="#293041" stop-opacity="0"/></linearGradient><linearGradient x1="1278" y1="363" x2="-2" y2="363" gradientUnits="userSpaceOnUse" spreadMethod="pad" id="fill5"><stop offset="0" stop-color="#293041"/><stop offset="1" stop-color="#293041" stop-opacity="0"/></linearGradient></defs><g clip-path="url(#clip0)"><rect x="0" y="0" width="1280" height="720" fill="#293041"/><g clip-path="url(#clip1)"><g clip-path="url(#clip2)"><g clip-path="url(#clip3)"><path d="M589.915 746.254C573.22 722.112 529.327 711.115 495.609 711.115 485.229 711.115 475.596 712.058 466.976 713.917 435.258 720.748 408.204 726.888 384.336 732.305 320.413 746.815 281.831 755.577 249.756 755.577 223.056 755.577 200.172 749.614 168.131 734.315 134.679 718.334 110.131 703.129 90.4069 690.91 59.4745 671.75 39.0387 659.094 11.0689 659.094 1.92042 659.094-7.93726 660.508-19 663.389L-19 665.751C-7.92056 662.83 1.94226 661.396 11.0689 661.396 38.3835 661.396 58.5974 673.914 89.1942 692.868 108.966 705.115 133.574 720.356 167.138 736.387 199.518 751.854 222.682 757.879 249.756 757.879 282.088 757.879 320.765 749.098 384.846 734.551 408.707 729.131 435.755 722.993 467.46 716.162 475.922 714.341 485.391 713.416 495.609 713.416 528.745 713.416 571.796 724.102 588.017 747.565 595.17 757.908 596.338 769.67 591.49 782.514 581.811 808.156 536.582 830.81 496.678 850.796 472.557 862.877 449.772 874.286 438.063 884.872 403.823 915.832 412.035 957.774 425.934 1003L428.345 1003C414.551 958.242 406.23 916.762 439.606 886.584 451.084 876.203 473.731 864.86 497.707 852.856 537.99 832.678 583.646 809.814 593.644 783.328 598.775 769.729 597.522 757.257 589.915 746.254Z" fill="#FFFFFF" fill-opacity="0.18"/><path d="M-8.55393 483.03C-3.87881 381.591 60.7878 307.64 112.75 248.216L116.441 244C122.469 237.656 136.376 220.682 135.282 200.179 134.617 187.701 128.436 176.404 116.915 166.613 110.005 160.742 103.614 155.256 97.5359 150.037 70.6567 126.962 49.4283 108.735 16.4661 85.8769 4.42307 77.5297-7.4285 69.6265-19 62.2002L-19 63.3678C-7.60838 70.6888 4.05692 78.4736 15.9046 86.6893 48.8244 109.517 70.0365 127.728 96.8935 150.786 102.973 156.006 109.364 161.495 116.275 167.366 127.583 176.976 133.648 188.033 134.297 200.232 135.368 220.353 121.665 237.067 115.711 243.332L112.004 247.572C59.9422 307.104-4.8488 381.203-9.53931 482.987-10.0403 493.827-14.2568 500.458-19 502.711L-19 503.885C-13.8688 501.773-9.11021 495.057-8.55393 483.03Z" fill="#FFFFFF" fill-opacity="0.18"/><path d="M14.4427 484.092C18.7476 390.685 80.48 320.092 130.084 263.368L133.791 259.129C144.205 247.21 152.644 236.65 158.871 227.74 166.587 216.699 180.952 196.15 147.032 163.403 110.458 128.087 70.9422 95.6384 29.5831 66.9592 12.7185 55.264-3.51397 44.7231-19 35.2577L-19 36.4088C-3.68739 45.7854 12.3549 56.2144 29.0217 67.7683 70.3371 96.4178 109.811 128.833 146.349 164.113 179.659 196.275 165.61 216.377 158.062 227.174 151.855 236.054 143.439 246.589 133.048 258.481L129.339 262.724C79.6358 319.559 17.7777 390.297 13.4572 484.046 11.4518 527.529 3.73316 552.83-10.8356 563.677-13.7185 565.821-16.4498 566.989-19 567.268L-19 568.258C-16.2276 567.989-13.3562 566.782-10.2485 564.466 4.5785 553.435 12.423 527.894 14.4427 484.092Z" fill="#FFFFFF" fill-opacity="0.18"/><path d="M-10.4707 335.129C-1.60744 319.536 9.8818 305.397 20.9935 291.722 37.0216 271.995 53.5956 251.601 62.5158 226.539 78.2445 182.35 47.4152 161.933 14.7752 140.318 11.7653 138.325 8.7371 136.319 5.6962 134.26 0.31709 130.622-4.76398 127.185-9.76799 123.719-12.2269 122.012-15.2563 119.828-19 117.105L-19 118.322C-15.5312 120.844-12.6612 122.913-10.3294 124.528-5.32026 128.001-0.23791 131.438 5.1759 135.099 8.1873 137.138 11.2179 139.144 14.2306 141.14 46.5387 162.538 77.0563 182.748 61.5866 226.211 52.7221 251.111 36.2033 271.439 20.2276 291.1 9.0905 304.805-2.42324 318.977-11.3289 334.639-13.9947 339.329-16.4306 345.426-19 351.889L-19 354.553C-18.7328 353.882-18.463 353.211-18.1983 352.547-15.598 346.002-13.1417 339.825-10.4707 335.129Z" fill="#FFFFFF" fill-opacity="0.18"/><path d="M69.8848 262.72C71.3556 260.967 72.8511 259.211 74.3544 257.442 95.5254 232.538 117.414 206.786 92.5344 175.992 73.2892 152.174 44.2443 132.533 18.6167 115.207 13.3056 111.616 8.2901 108.222 3.34902 104.798 0.03316 102.499-4.45824 99.2199-9.6588 95.4246-12.516 93.3394-15.6559 91.0471-19 88.6265L-19 89.8434C-15.8756 92.1094-12.9297 94.257-10.2395 96.2205-5.03508 100.019-0.53855 103.301 2.78761 105.607 7.73252 109.037 12.7519 112.431 18.0641 116.023 43.6329 133.313 72.615 152.908 91.7675 176.611 116.134 206.77 94.5117 232.206 73.6029 256.8 72.0983 258.573 70.6018 260.333 69.1307 262.089 50.7461 284 27.2615 313.34 8.6858 346.015-2.59154 365.853-11.8788 386.698-19 408.086L-19 411.326C-11.7837 388.974-2.21381 367.189 9.5427 346.505 28.0798 313.899 51.5273 284.598 69.8848 262.72Z" fill="#FFFFFF" fill-opacity="0.18"/><path d="M317.493 288.581C321.15 288.581 324.186 290.091 326.511 293.077 334.089 302.779 332.602 325.344 330.122 335.27 318.052 383.544 292.169 400.699 252.981 426.672 243.189 433.157 233.706 440.623 224.533 447.839 213.378 456.617 201.842 465.694 189.729 473.029 182.349 477.495 176.059 479.36 172.165 478.225 170.433 477.725 169.199 476.659 168.492 475.048 166.811 471.213 168.194 464.491 172.386 456.124 183.634 433.667 202.501 414.605 220.748 396.17 223.854 393.033 226.923 389.935 229.908 386.86 252.097 364.015 271.821 343.193 288.505 319.684 289.87 317.757 291.431 315.172 293.083 312.435 299.027 302.582 307.169 289.091 316.779 288.597 317.019 288.588 317.256 288.581 317.493 288.581ZM292.238 311.926C290.596 314.645 289.044 317.217 287.698 319.112 271.057 342.562 251.361 363.357 229.202 386.172 226.219 389.244 223.151 392.342 220.048 395.477 201.746 413.963 182.822 433.082 171.504 455.68 167.115 464.441 165.761 471.272 167.588 475.443 168.419 477.334 169.867 478.59 171.892 479.172 172.729 479.416 173.665 479.537 174.678 479.537 178.739 479.537 184.121 477.577 190.239 473.87 202.404 466.507 213.965 457.41 225.143 448.612 234.301 441.409 243.769 433.957 253.533 427.491 292.906 401.393 318.92 384.156 331.079 335.507 333.598 325.423 335.078 302.44 327.29 292.468 324.607 289.032 321.091 287.417 316.726 287.614 306.595 288.13 298.298 301.881 292.238 311.926Z" fill="#FFFFFF" fill-opacity="0.18"/><path d="M37.7669 485.168C41.6981 399.92 100.448 332.731 147.656 278.747L151.376 274.491C207.515 210.23 205.235 187.79 178.897 161.801 150.017 133.309 104.495 90.4847 42.889 47.7686 21.8618 33.189 1.0635 19.8656-19 8.00256L-19 9.91016C0.76546 21.6252 21.2425 34.7643 41.9497 49.1203 103.455 91.7673 148.905 134.523 177.741 162.972 203.32 188.211 205.404 210.144 150.138 273.413L146.418 277.665C99.042 331.843 40.0832 399.269 36.1261 485.089 32.4106 565.647 2.07201 589.297-19 595.938L-19 597.661C2.56021 591.086 33.9807 567.318 37.7669 485.168Z" fill="#FFFFFF" fill-opacity="0.18"/><path d="M339.775 268.453C353.638 286.21 356.397 323.742 352.138 340.776 337.93 397.601 305.976 418.775 265.503 445.599 263.483 446.934 261.436 448.283 259.369 449.644 234.68 465.901 206.695 484.332 190.731 509.509 182.29 522.819 179.014 538.066 175.846 552.81 172.751 567.216 169.551 582.111 161.494 594.846 155.744 603.936 149.066 613.227 143.133 613.227 138.603 613.227 134.439 607.741 130.407 596.461 129.144 592.925 128.593 589.403 128.722 585.686 129.102 574.724 135.507 564.308 141.702 554.241 147.058 545.535 152.115 537.313 153.556 528.785 155.844 515.225 152.984 502.316 150.219 489.831 146.791 474.357 143.551 459.738 149.229 443.895 156.036 424.905 178.711 403.889 196.931 387.001 203.126 381.262 208.975 375.842 213.646 371.03 231.501 352.655 249.963 333.649 266.338 312.501 269.328 308.64 272.697 303.305 276.267 297.655 286.249 281.855 298.673 262.191 312.454 258.79 314.95 258.172 317.384 257.863 319.693 257.863 327.53 257.863 334.286 261.425 339.775 268.453ZM312.059 257.192C297.638 260.754 285.017 280.73 274.875 296.777 271.328 302.391 267.977 307.696 265.038 311.491 248.718 332.57 230.291 351.54 212.468 369.886 207.825 374.664 201.992 380.071 195.813 385.797 177.461 402.804 154.622 423.971 147.681 443.343 141.845 459.633 145.285 475.166 148.613 490.187 151.344 502.517 154.169 515.268 151.933 528.505 150.549 536.724 145.572 544.812 140.302 553.376 133.995 563.631 127.472 574.234 127.078 585.63 126.944 589.501 127.543 593.336 128.859 597.013 133.214 609.198 137.749 614.872 143.133 614.872 148.559 614.872 154.279 609.327 162.884 595.727 171.096 582.746 174.327 567.706 177.454 553.156 180.593 538.55 183.837 523.45 192.118 510.39 207.895 485.51 235.722 467.187 260.274 451.019 262.341 449.658 264.39 448.306 266.425 446.961 307.182 419.952 339.37 398.617 353.733 341.174 357.532 325.969 356.535 287.249 341.071 267.443 333.559 257.82 323.692 254.321 312.059 257.192Z" fill="#FFFFFF" fill-opacity="0.18"/><path d="M329.984 223.362C334.799 230.923 340.906 235.571 347.372 240.488 354.361 245.802 361.587 251.301 367.241 260.938 380.189 283.013 390.177 322.835 383.724 348.669 366.451 417.765 326.152 444.468 283.489 472.736 234.505 505.194 183.85 538.76 165.257 639.772 160.771 664.149 153.351 677.035 143.796 677.035 128.851 677.035 110.686 645.935 105.032 619.183 95.231 572.83 98.469 517.57 114.655 454.936 125.389 413.401 156.128 383.104 185.857 353.803 201.316 338.569 217.299 322.812 230.177 305.729 233.3 301.585 238.267 296.02 244.019 289.574 262.952 268.358 288.884 239.3 284.355 221.938 282.726 215.702 278.859 209.49 274.763 202.915 270.569 196.183 266.233 189.217 264.683 182.426 262.719 173.812 265.777 172.289 268.475 170.951 269.965 170.207 271.507 169.441 271.882 167.632 272.383 165.221 270.851 161.538 261.684 150.645 256.478 144.462 241.75 136.559 227.509 128.912 212.551 120.884 195.596 111.78 194.183 106.541 190.976 94.6484 191.985 89.9584 193.395 88.1166 194.148 87.1332 195.251 86.6564 196.763 86.6564 211.139 86.6564 252.868 127.59 287.125 165.896 287.55 166.372 287.792 166.609 287.805 166.619 294.22 171.49 299.869 172.697 304.853 173.759 311.898 175.262 317.983 176.561 325.297 187.096 328.78 192.111 328.192 198.143 327.573 204.527 326.952 210.943 326.304 217.577 329.984 223.362ZM327.188 185.783C319.354 174.499 312.543 173.046 305.334 171.51 300.354 170.444 295.203 169.346 289.329 164.906L288.843 164.363C272.058 145.593 215.811 84.3541 196.763 84.3541 194.516 84.3541 192.769 85.1467 191.567 86.7156 189.022 90.0374 189.151 96.7204 191.962 107.143 193.633 113.342 209.558 121.89 226.421 130.941 240.47 138.483 255 146.284 259.922 152.132 264.339 157.377 270.151 164.646 269.627 167.162 269.486 167.846 268.746 168.244 267.449 168.888 264.511 170.349 260.07 172.559 262.438 182.935 264.074 190.108 268.514 197.235 272.809 204.132 276.809 210.555 280.587 216.62 282.126 222.52 286.345 238.685 259.839 268.39 242.301 288.042 236.514 294.524 231.52 300.125 228.34 304.341 215.563 321.296 199.64 336.987 184.242 352.162 154.29 381.683 123.319 412.207 112.426 454.361 96.1496 517.34 92.9045 572.955 102.78 619.657 108.046 644.58 126.198 679.333 143.796 679.333 154.759 679.333 162.742 666.165 167.522 640.186 185.938 540.138 236.177 506.848 284.761 474.653 327.807 446.132 368.467 419.189 385.958 349.228 392.552 322.828 382.406 282.24 369.224 259.77 363.343 249.742 355.93 244.105 348.767 238.656 342.469 233.867 336.522 229.341 331.928 222.126 328.672 217.011 329.251 211.055 329.866 204.75 330.497 198.232 331.152 191.493 327.188 185.783Z" fill="#FFFFFF" fill-opacity="0.18"/><path d="M-19-27.7147C91.9049 35.0505 211.429 134.901 233.19 184.53 246.258 214.338 214.578 249.953 174.473 295.044 128.897 346.281 72.1778 410.053 68.6502 486.589 64.349 579.888 18.1105 618.207-19 629.793L-19 632.198C18.9623 620.634 66.565 581.818 70.9498 486.697 74.4403 410.97 130.859 347.541 176.193 296.573 216.848 250.867 248.96 214.762 235.298 183.603 213.374 133.602 92.7078 32.8831-19-30.1715L-19-27.7147Z" fill="#FFFFFF" fill-opacity="0.18"/><path d="M11.7306 207.688C10.1092 197.084 2.79274 187.609-10.6364 178.716-13.3896 176.894-16.1595 175.052-19 173.138L-19 174.322C-16.3676 176.088-13.7596 177.831-11.1825 179.538 2.00136 188.267 9.1791 197.525 10.7542 207.836 13.3621 224.892 0.40573 242.484-15.5017 262.059-16.5783 263.381-17.7641 265.009-19 266.756L-19 268.473C-17.4699 266.269-16.0284 264.27-14.7373 262.681 1.32303 242.918 14.4003 225.138 11.7306 207.688Z" fill="#FFFFFF" fill-opacity="0.18"/><path d="M40.8242 218.82C49.3744 194.802 40.7729 185.149 2.06303 159.512-1.01004 157.476-4.0985 155.43-7.26021 153.293-11.3186 150.546-15.1831 147.922-19 145.304L-19 146.501C-15.3565 148.994-11.6642 151.503-7.77795 154.135-4.64837 156.249-1.55731 158.298 1.51701 160.334 39.7142 185.629 48.2167 195.111 39.8968 218.488 32.3619 239.659 17.7905 257.59 2.36235 276.583-4.81538 285.414-12.137 294.438-19 304.075L-19 305.782C-11.9238 295.738-4.31948 286.368 3.13064 277.198 18.6114 258.146 33.2328 240.149 40.8242 218.82Z" fill="#FFFFFF" fill-opacity="0.18"/><path d="M302.181 352.333C300.997 358.065 297.567 365.117 292.769 371.681 287.766 378.512 277.515 390.02 265.053 390.29L264.931 391.115 264.931 390.293C264.729 390.293 264.53 390.28 264.332 390.257 263.152 390.119 262.95 389.609 262.882 389.441 262.522 388.534 262.574 385.366 270.806 375.598L271.058 375.302C273.07 372.878 275.039 370.418 277.007 367.962 280.033 364.186 283.163 360.275 286.404 356.582 286.994 355.911 287.681 355.046 288.446 354.089 291.507 350.248 296.136 344.449 300.171 344.449L300.175 344.449C300.843 344.476 301.33 344.712 301.706 345.193 302.843 346.646 302.673 349.945 302.181 352.333ZM300.239 342.805 300.022 342.802C295.346 342.802 290.614 348.731 287.161 353.066 286.413 354 285.742 354.842 285.168 355.497 281.902 359.22 278.761 363.14 275.724 366.935 273.762 369.386 271.8 371.836 269.794 374.247L269.549 374.539C262.985 382.327 260.305 387.399 261.353 390.047 261.642 390.777 262.36 391.684 264.141 391.892 264.4 391.921 264.665 391.938 264.931 391.938L265.091 391.934C278.258 391.648 288.915 379.729 294.095 372.652 299.028 365.906 302.563 358.621 303.789 352.668 304.077 351.28 304.867 346.564 303.003 344.18 302.333 343.325 301.377 342.848 300.239 342.805Z" fill="#FFFFFF" fill-opacity="0.18"/><path d="M538.256 620.798C525.627 615.049 510.784 612.254 492.883 612.254 455.603 612.254 412.052 624.784 373.631 635.838 342.39 644.827 312.882 653.315 292.441 653.319 280.411 653.319 272.252 650.425 267.495 644.472 261.732 637.259 260.801 625.498 264.646 608.518 272.96 571.8 320.476 527.693 362.399 488.779 387.882 465.129 411.953 442.784 424.579 424.626 465.026 366.452 478.329 262.862 433.67 201.373 422.389 185.839 403.257 170.398 383.001 154.052 339.874 119.249 290.996 79.8057 310.655 29.7882 319.887 6.29572 342.528-4.40625 366.494-15.7398 381.481-22.824 396.975-30.1517 409.236-40.9327 419.859-50.2731 428.394-59.4064 436.649-68.2371 457.859-90.9304 474.613-108.851 509.594-108.851 515.106-108.851 521.091-108.401 527.38-107.51 615.226-95.0613 717.977-75.9889 825.8-6.82025 944.477 69.3109 1054.82 149.205 1100.91 288.745 1120.79 348.952 1112.08 419.943 1079.22 465.402 1056.95 496.215 1025.91 512.505 989.469 512.508 976.603 512.508 962.98 510.456 948.976 506.407 905.385 493.798 877.808 467.898 864.675 427.231 852.914 390.819 853.486 346.025 854.042 302.703 854.93 233.236 855.848 161.4 806.735 119.818 783.272 99.9468 782.644 99.6409 769.087 102.982 763.223 104.43 755.188 106.406 741.608 107.686 731.439 108.643 724.22 108.889 718.421 109.087 698.583 109.764 698.583 109.764 669.91 135.74L669.526 136.088C661.458 143.396 649.822 148.807 637.502 154.532 619.219 163.031 600.314 171.816 593.533 187.507 584.449 208.523 592.661 268.719 598.061 294.58 604.452 325.2 624.027 353.389 641.294 378.266L644.935 383.515C650.993 392.276 657.406 401.186 663.609 409.803 699.958 460.304 737.546 512.525 736.622 577.625 736.024 619.742 689.976 669.454 647.036 674.341 644.306 674.651 641.58 674.811 638.929 674.811 613.71 674.811 595.703 660.811 576.641 645.988 564.873 636.838 552.708 627.376 538.256 620.798ZM647.224 675.973C690.861 671.01 737.658 620.469 738.267 577.651 739.197 512.005 701.451 459.56 664.944 408.842 658.745 400.232 652.338 391.329 646.286 382.574L642.645 377.328C625.468 352.583 605.994 324.538 599.67 294.244 594.305 268.552 586.113 208.816 595.042 188.161 601.574 173.042 620.192 164.393 638.196 156.022 650.631 150.24 662.379 144.784 670.631 137.305L671.015 136.957C699.241 111.386 699.241 111.386 718.477 110.731 724.299 110.534 731.544 110.284 741.763 109.323 755.464 108.031 763.565 106.038 769.481 104.581 773.244 103.653 775.961 102.986 778.375 102.986 784.311 102.986 789.264 107.179 805.676 121.075 854.193 162.156 853.282 233.597 852.398 302.684 851.286 389.626 850.138 479.527 948.522 507.986 962.671 512.077 976.448 514.153 989.469 514.153 1026.46 514.149 1057.96 497.626 1080.55 466.365 1113.7 420.498 1122.51 348.912 1102.47 288.232 1056.21 148.178 945.624 68.0939 826.688-8.2017 718.586-77.5511 615.631-96.6628 527.613-109.138 521.246-110.039 515.185-110.496 509.594-110.496 473.899-110.496 456.932-92.3446 435.449-69.3618 427.22-60.5575 418.712-51.4538 408.151-42.1693 396.064-31.5396 380.676-24.2613 365.793-17.2264 341.521-5.7514 318.598 5.08875 309.123 29.1897 289.024 80.3287 338.4 120.177 381.968 155.335 402.136 171.608 421.185 186.981 432.341 202.34 476.59 263.263 463.352 365.975 423.227 423.685 410.703 441.702 386.698 463.984 361.281 487.575 319.183 526.65 271.468 570.942 263.043 608.149 259.08 625.656 260.115 637.868 266.21 645.498 271.3 651.865 279.879 654.963 292.441 654.963 313.112 654.96 342.728 646.438 374.085 637.42 412.404 626.393 455.833 613.898 492.883 613.898 510.544 613.898 525.163 616.644 537.575 622.295 551.849 628.793 563.939 638.193 575.634 647.287 594.924 662.284 613.144 676.456 638.929 676.456 641.642 676.456 644.431 676.291 647.224 675.973Z" fill="#FFFFFF" fill-opacity="0.18"/><path d="M1342.76-345.658C1338.44-345.658 1334.23-345.694 1330.1-345.727 1326.12-345.76 1322.22-345.79 1318.36-345.79 1295.94-345.79 1278.09-344.589 1258.41-338.613 1248.11-335.489 1238.47-330.579 1229.15-325.833 1213.58-317.907 1198.88-310.418 1181.28-310.418 1178.36-310.418 1175.41-310.632 1172.49-311.052 1159.5-312.93 1149.79-320.584 1140.38-327.984 1129.82-336.305 1119.84-344.158 1105.83-344.158 1104.56-344.158 1103.26-344.093 1101.96-343.958 1093.33-343.076 1079.5-335.302 1066.12-327.786 1057.52-322.952 1049.4-318.387 1043.64-316.262 1035.25-313.177 1028.97-311.681 1024.39-310.589 1010.57-307.3 1008.82-306.083 1002.1-280.63 1000.25-273.592 998.9-267.014 997.599-260.654 992.761-237.049 988.942-218.405 963.776-200.592 946.795-188.601 925.246-182.773 897.903-182.773 870.809-182.769 842.488-188.443 817.496-193.448 804.429-196.066 792.086-198.536 782.917-199.513 777.589-200.082 769.379-200.424 760.953-200.424 736.816-200.424 708.535-191.584 706.558-178.902 705.621-172.896 710.311-163.878 737.987-155.031L741.075-154.044C846.55-120.212 920.113-76.0647 994.984-1.66023 1015.64 18.8657 1031.41 28.4265 1044.62 28.4265 1047.72 28.4265 1050.76 27.8806 1053.64 26.8084 1067.68 21.5659 1077.92 3.84211 1089.78-16.6806 1095.91-27.2774 1102.85-39.2851 1111.05-50.8456 1150.77-106.829 1207.77-147.733 1271.56-166.029 1290.38-171.426 1308.75-174.162 1326.16-174.162 1382.96-174.162 1423.05-146.352 1461-117.732L1461-119.787C1423.12-148.305 1383-175.807 1326.16-175.807 1308.59-175.807 1290.07-173.048 1271.1-167.608 1206.96-149.213 1149.64-108.082 1109.71-51.796 1101.46-40.1764 1094.5-28.1292 1088.36-17.5028 1076.66 2.74362 1066.55 20.2306 1053.07 25.2659 1050.37 26.2723 1047.52 26.7821 1044.62 26.7821 1031.87 26.7821 1016.46 17.3726 996.139-2.82451 921.073-77.4296 847.32-121.692 741.575-155.61L738.484-156.596C717.76-163.224 706.999-171.054 708.183-178.648 709.828-189.183 734.981-198.78 760.953-198.78 769.324-198.78 777.47-198.444 782.742-197.879 791.836-196.912 804.143-194.445 817.174-191.837 842.238-186.818 870.648-181.125 897.903-181.128 925.602-181.128 947.456-187.055 964.726-199.247 990.422-217.438 994.3-236.365 999.21-260.325 1000.51-266.662 1001.85-273.217 1003.7-280.209 1010.39-305.567 1011.75-305.889 1024.77-308.99 1029.4-310.089 1035.73-311.599 1044.2-314.72 1050.09-316.887 1058.27-321.485 1066.93-326.352 1079.54-333.44 1093.83-341.475 1102.13-342.323 1103.37-342.452 1104.62-342.514 1105.83-342.514 1119.27-342.514 1129.03-334.831 1139.37-326.691 1148.94-319.156 1158.83-311.365 1172.25-309.424 1175.25-308.99 1178.29-308.773 1181.28-308.773 1199.27-308.773 1214.84-316.699 1229.9-324.366 1239.16-329.082 1248.73-333.96 1258.88-337.041 1278.37-342.958 1296.09-344.145 1318.36-344.145 1322.21-344.145 1326.11-344.116 1330.08-344.083 1334.22-344.05 1338.43-344.014 1342.76-344.014 1362.85-344.014 1380.82-341.669 1397.72-336.847 1419.07-330.75 1440.01-322.228 1461-312.302L1461-314.121C1440.17-323.938 1419.38-332.368 1398.17-338.426 1381.13-343.293 1363-345.658 1342.76-345.658Z" fill="#FFFFFF" fill-opacity="0.18"/><path d="M1273.03 394.96C1274.89 397.397 1278.39 400.722 1287.18 401.442 1320.05 404.13 1369.72 408.195 1411.68 446.411L1412.15 446.839C1426.49 459.942 1438.14 476.518 1446.77 496.11 1449.15 501.517 1453.03 504.622 1457.4 504.622 1458.59 504.622 1459.8 504.378 1461 503.885L1461 502.707C1459.81 503.273 1458.6 503.635 1457.4 503.635 1453.44 503.635 1449.89 500.747 1447.67 495.712 1438.98 475.995 1427.26 459.307 1412.82 446.112L1412.34 445.678C1370.14 407.238 1320.26 403.159 1287.26 400.459 1278.86 399.772 1275.56 396.651 1273.81 394.362 1269.63 388.886 1269.09 380.446 1269.58 377.845 1274.14 357.717 1279.83 332.665 1277.7 305.246 1274.1 258.83 1255.54 218.949 1237.6 180.377 1223.19 149.425 1206.87 114.342 1212.54 98.3517 1222.63 69.8896 1263.86 29.0811 1281.13 12.8603 1292.1 2.54965 1305.12-2.67639 1319.86-2.67639 1328.28-2.67639 1335.56-0.90363 1340.17 0.58298 1370.42 10.3345 1413.26 32.6825 1461 63.3678L1461 62.197C1413.4 31.6432 1370.68 9.384 1340.47-0.3544 1335.79-1.86401 1328.41-3.66306 1319.86-3.66306 1304.86-3.66306 1291.61 1.65512 1280.45 12.1401 1263.14 28.4135 1221.77 69.3569 1211.61 98.0196 1205.8 114.395 1222.22 149.672 1236.7 180.798 1254.61 219.284 1273.13 259.083 1276.71 305.321 1278.83 332.59 1273.17 357.562 1268.61 377.667 1268.1 380.39 1268.66 389.241 1273.03 394.96Z" fill="#FFFFFF" fill-opacity="0.18"/><path d="M1334.95 365.153C1342.43 369.254 1352.71 371.004 1362.65 372.694 1370.01 373.944 1377.61 375.24 1383.81 377.473 1387.73 378.884 1392.04 381.015 1396.62 383.268 1406.06 387.915 1416.75 393.187 1426.49 393.187 1428.36 393.187 1430.17 392.99 1431.87 392.602 1432.32 392.497 1432.77 392.382 1433.21 392.25 1447.15 388.093 1454.59 370.616 1461 354.553L1461 351.889C1460.96 351.984 1460.92 352.08 1460.88 352.175 1454.37 368.55 1446.99 387.11 1432.93 391.306 1432.5 391.431 1432.08 391.54 1431.65 391.638 1430.02 392.013 1428.29 392.201 1426.49 392.201 1416.98 392.201 1406.39 386.985 1397.06 382.383 1392.46 380.114 1388.11 377.976 1384.15 376.546 1377.87 374.28 1370.22 372.98 1362.82 371.721 1352.96 370.044 1342.76 368.31 1335.42 364.285 1319.18 355.378 1320.87 339.069 1322.66 321.802 1323.37 315.043 1324.09 308.051 1323.6 301.668 1319.35 246.947 1299.02 203.244 1279.36 160.985 1270.44 141.798 1269.78 120.769 1277.52 101.779 1285.9 81.2265 1303.46 64.6209 1325.69 56.2178 1332.62 53.5998 1339.84 52.2744 1347.16 52.2744 1378.88 52.2744 1408.68 76.6056 1434.97 98.0755 1442.41 104.153 1449.44 109.892 1456.18 114.816 1457.93 116.089 1459.5 117.237 1461 118.325L1461 117.102C1459.68 116.141 1458.28 115.118 1456.77 114.02 1450.05 109.113 1443.03 103.38 1435.59 97.3091 1409.17 75.7373 1379.23 51.2844 1347.16 51.2844 1339.72 51.2844 1332.38 52.6361 1325.34 55.2968 1302.85 63.7953 1285.09 80.6016 1276.61 101.404 1268.76 120.654 1269.42 141.959 1278.47 161.403 1298.09 203.583 1318.38 247.2 1322.62 301.743 1323.1 308.038 1322.38 314.984 1321.69 321.7 1319.93 338.529 1318.13 355.928 1334.95 365.153Z" fill="#FFFFFF" fill-opacity="0.18"/><path d="M1313.64 382.867C1320.37 384.557 1326.94 386.08 1333.3 387.553 1367.68 395.529 1397.38 402.416 1427.08 429.299L1427.67 429.839C1434.5 436.015 1439.89 439.021 1444.15 439.021 1444.81 439.021 1445.46 438.946 1446.08 438.804 1452.53 437.311 1455.74 428.313 1459.28 416.7 1459.83 414.904 1460.42 413.115 1461 411.322L1461 408.083C1460.08 410.852 1459.18 413.628 1458.33 416.413 1454.9 427.714 1451.79 436.469 1445.85 437.841 1441.59 438.844 1435.95 435.992 1428.33 429.102L1427.74 428.566C1397.85 401.508 1368.04 394.598 1333.52 386.593 1327.17 385.12 1320.6 383.597 1313.88 381.91 1289.76 375.858 1293.84 353.181 1297.79 331.248 1299.51 321.664 1301.29 311.754 1300.65 303.46 1296.73 252.9 1277.29 211.105 1258.47 170.671 1256.22 165.84 1253.82 161.117 1251.49 156.549 1239.4 132.846 1228.97 112.375 1243.88 87.1826 1255.11 68.2254 1271.93 52.7118 1288.19 37.7111 1291.13 35.0044 1294.04 32.314 1296.91 29.6204 1303.19 23.7267 1311.73 20.7371 1322.31 20.7371 1362.82 20.7371 1425.14 63.8611 1461 89.8433L1461 88.6264C1424.97 62.5357 1362.91 19.7538 1322.31 19.7538 1311.48 19.7538 1302.7 22.8289 1296.23 28.9002 1293.37 31.5938 1290.45 34.2841 1287.52 36.9876 1271.21 52.0342 1254.34 67.5972 1243.04 86.6761 1227.84 112.339 1238.9 134.033 1250.61 156.999 1252.94 161.557 1255.34 166.274 1257.59 171.102 1276.35 211.44 1295.76 253.156 1299.66 303.536 1300.3 311.708 1298.53 321.552 1296.82 331.07 1292.79 353.451 1288.63 376.592 1313.64 382.867Z" fill="#FFFFFF" fill-opacity="0.18"/><path d="M627.73 822.292C624.297 815.702 621.051 809.478 623.396 804.429 626.911 796.869 633.519 795.724 639.906 794.613 645.023 793.721 650.315 792.804 653.466 788.436 658.58 781.346 661.047 772.853 663.435 764.644 666.727 753.311 669.838 742.605 679.445 736.511 692.485 728.243 703.684 726.864 714.514 725.534 729.367 723.704 743.394 721.981 759.329 702.488 779.927 677.288 795.069 637.542 799.835 596.161 809.451 512.6 760.115 450.236 716.586 395.217 678.517 347.097 645.642 305.542 659.347 260.369 673.939 212.262 714.297 187.092 746.62 187.092 763.496 187.092 778.059 193.384 788.735 205.296 803.998 222.323 810.073 249.571 806.294 284.092 796.348 374.862 799.739 486.947 915.183 548.518 952.577 568.459 991.192 578.154 1033.24 578.151 1087.13 578.151 1137.1 562.049 1181.19 547.838 1216.75 536.376 1247.46 526.476 1274.21 526.476 1309.36 526.476 1332.22 543.93 1348.33 583.058 1388.48 680.567 1349.86 761.756 1323.25 801.477 1280.41 865.452 1216.41 903.682 1179.28 903.682 1167.93 903.682 1159.13 900.393 1153.13 893.904 1095.93 832.026 1022.73 800.655 935.557 800.655 908.97 800.655 880.587 803.571 851.197 809.327 838.397 811.837 824.508 814.011 809.8 816.313 772.382 822.17 729.975 828.807 699.073 842.821 692.354 845.867 682.069 855.901 670.154 867.521 652.663 884.583 632.838 903.918 620.903 903.918 619.844 903.918 618.857 903.758 617.972 903.442 612.697 901.544 609.51 898.738 608.224 894.865 604.942 884.955 615.009 869.764 623.096 857.559 627.947 850.238 632.138 843.917 632.93 839.69 633.953 834.234 630.789 828.162 627.73 822.292ZM621.514 856.51C613.2 869.056 602.85 884.676 606.425 895.464 607.882 899.864 611.552 903.149 617.331 905.228 618.423 905.619 619.627 905.816 620.903 905.816 633.611 905.816 653.729 886.192 671.479 868.879 682.773 857.861 693.442 847.455 699.856 844.548 730.521 830.643 772.797 824.022 810.096 818.187 824.817 815.879 838.726 813.705 851.562 811.192 880.833 805.454 909.092 802.549 935.557 802.549 1022.18 802.549 1094.91 833.717 1151.74 895.19 1158.11 902.08 1167.37 905.577 1179.28 905.577 1216.39 905.577 1280.01 869.461 1324.83 802.532 1351.64 762.5 1390.57 680.659 1350.09 582.341 1333.86 542.934 1309.75 524.582 1274.21 524.582 1247.16 524.582 1216.32 534.524 1180.6 546.035 1136.65 560.2 1086.83 576.257 1033.24 576.257 991.514 576.257 953.189 566.634 916.077 546.844 801.637 485.809 798.299 374.477 808.175 284.299 812.017 249.229 805.781 221.471 790.142 204.027 779.102 191.707 764.052 185.195 746.62 185.195 713.597 185.195 672.394 210.828 657.531 259.82 643.54 305.94 676.702 347.857 715.1 396.394 758.398 451.124 807.475 513.163 797.95 595.941 793.227 636.976 778.24 676.361 757.859 701.287 742.407 720.191 728.745 721.872 714.284 723.651 703.243 725.011 691.828 726.411 678.432 734.909 668.217 741.388 665.01 752.429 661.613 764.115 659.271 772.169 656.85 780.503 651.927 787.325 649.23 791.067 644.543 791.883 639.584 792.741 633.032 793.882 625.612 795.172 621.679 803.634 618.939 809.527 622.55 816.461 626.047 823.167 628.96 828.754 631.97 834.531 631.069 839.342 630.345 843.186 626.254 849.363 621.514 856.51Z" fill="#FFFFFF" fill-opacity="0.18"/><path d="M417.327 861.94C432.166 848.527 455.646 836.766 482.835 823.15 501.822 813.642 527.317 790.294 525.794 771.189 524.966 760.75 516.569 752.945 500.845 747.989 494.662 746.039 487.893 745.092 480.155 745.092 460.01 745.092 437.34 751.775 417.337 757.672 408.197 760.366 399.564 762.911 391.69 764.697 325.504 779.72 285.555 788.792 249.756 788.794 218.058 788.794 190.262 781.694 153.816 764.286 118.74 747.532 93.3438 731.804 72.9155 719.15 42.8709 700.538 28.8379 692.308 11.0689 692.308 2.78247 692.308-7.12017 694.163-19 697.945L-19 699.669C-7.09577 695.847 2.82486 693.952 11.0689 693.952 28.3909 693.952 42.2799 702.109 72.07 720.563 92.5127 733.222 117.95 748.98 153.107 765.77 189.792 783.292 217.793 790.439 249.756 790.439 285.739 790.436 325.758 781.352 392.052 766.302 399.978 764.499 408.634 761.95 417.801 759.251 437.698 753.384 460.247 746.736 480.155 746.736 487.722 746.736 494.33 747.66 500.352 749.558 515.375 754.291 523.384 761.612 524.157 771.321 525.623 789.705 500.671 812.379 482.098 821.681 454.801 835.349 431.229 847.155 416.228 860.72 370.98 901.633 378.268 955.054 391.996 1003L393.709 1003C380.041 955.389 372.654 902.337 417.327 861.94Z" fill="#FFFFFF" fill-opacity="0.18"/><path d="M1416.42 632.05C1420.64 634.75 1427.51 636.236 1435.74 636.236 1443.08 636.236 1451.76 635.013 1461 632.198L1461 629.793C1451.75 632.681 1443.06 633.934 1435.74 633.934 1428.05 633.934 1421.46 632.54 1417.66 630.109 1398.33 617.766 1389.8 595.98 1380.75 572.919 1372.95 553.014 1364.88 532.436 1349.22 517.925L1349.18 517.248 1348.5 517.264C1330.49 501.379 1306.22 493.656 1274.32 493.656 1243.22 493.656 1210.49 501.122 1184.19 507.124 1166.23 511.222 1150.71 514.764 1140.73 514.764 1134.86 514.764 1131.3 513.557 1129.83 511.074 1127.87 507.769 1129.34 501.579 1134.22 492.68 1156.94 451.184 1202.84 352.251 1199.66 311.31 1197.15 279.004 1181.63 245.641 1166.61 213.377 1144.88 166.655 1122.4 118.345 1138.76 72.1952 1157.44 19.5401 1239.69-74.578 1298.22-82.5601 1301.64-83.0239 1305.32-83.2608 1309.17-83.2608 1347.24-83.2608 1402.94-60.5707 1461-27.7147L1461-30.1747C1402.92-62.9551 1347.27-85.563 1309.17-85.563 1305.22-85.563 1301.43-85.3196 1297.91-84.8394 1238.64-76.7553 1155.44 18.2739 1136.59 71.4256 1119.91 118.463 1142.6 167.208 1164.53 214.351 1179.45 246.427 1194.89 279.599 1197.37 311.488 1200.2 347.988 1160.15 440.528 1132.2 491.575 1126.76 501.51 1125.37 508.078 1127.85 512.248 1129.77 515.491 1133.98 517.063 1140.73 517.063 1150.97 517.063 1166.61 513.498 1184.71 509.367 1210.89 503.395 1243.48 495.959 1274.32 495.959 1305.84 495.959 1329.71 503.589 1347.31 519.293L1347.32 519.297C1362.81 533.462 1370.85 553.948 1378.61 573.757 1387.79 597.181 1396.47 619.305 1416.42 632.05Z" fill="#FFFFFF" fill-opacity="0.18"/><path d="M1397.22 782.204C1388.53 802.019 1380.32 820.73 1369.91 836.921 1309.28 931.197 1241.7 947.082 1170.16 963.902 1164.71 965.184 1158.99 966.401 1153.45 967.579 1129.62 972.656 1104.97 977.906 1084.89 990.936 1078.6 995.014 1073.81 999.04 1070.45 1003L1072.61 1003C1075.79 999.513 1080.18 995.952 1085.78 992.318 1105.62 979.451 1130.11 974.235 1153.79 969.19 1159.34 968.006 1165.07 966.786 1170.54 965.503 1242.41 948.605 1310.31 932.643 1371.3 837.805 1381.77 821.509 1390.01 802.74 1398.74 782.826 1412.59 751.259 1428.3 715.486 1450 703.527 1453.85 702.063 1457.5 700.794 1461 699.672L1461 697.945C1457.3 699.126 1453.41 700.482 1449.31 702.04 1427.01 714.314 1411.19 750.361 1397.22 782.204Z" fill="#FFFFFF" fill-opacity="0.18"/><path d="M1055.3 967.316C1094.08 950.032 1129.15 941.787 1163.07 933.811 1231.2 917.795 1290.04 903.965 1343.91 820.197 1352.98 806.084 1360.72 788.453 1368.91 769.784 1386.02 730.788 1403.71 690.467 1436.55 673.812 1445.4 670.385 1453.47 667.734 1461 665.751L1461 663.389C1453.17 665.425 1444.76 668.175 1435.49 671.773 1401.93 688.782 1384.07 729.493 1366.8 768.861 1358.65 787.439 1350.95 804.992 1341.98 818.951 1288.61 901.936 1230.19 915.667 1162.54 931.568 1128.52 939.571 1093.34 947.839 1054.36 965.218 1029 976.521 1012.06 989.611 1005.04 1003L1007.61 1003C1014.68 990.473 1031.05 978.129 1055.3 967.316Z" fill="#FFFFFF" fill-opacity="0.18"/><path d="M893.522 656.45C899.81 652.96 906.253 651.266 913.219 651.266 926 651.266 938.688 657.127 950.956 662.797L953.867 664.142C960.915 667.379 968.032 668.954 975.622 668.954 984.868 668.954 993.882 666.658 1003.42 664.231 1005.82 663.62 1008.27 662.998 1010.77 662.403 1016.14 661.117 1021.31 660.488 1026.59 660.488 1042.56 660.488 1057.14 666.576 1070.5 673.151 1077.3 676.492 1083.89 678.117 1090.66 678.117 1100.61 678.117 1109.5 674.67 1118.92 671.02 1125.9 668.316 1133.11 665.524 1141.06 664.06 1148.28 662.732 1155.44 661.886 1162.36 661.071 1180.23 658.966 1197.12 656.973 1214.27 647.261 1216.32 646.096 1218.27 644.935 1220.15 643.811 1228.27 638.963 1235.27 634.773 1244.43 634.773 1247.26 634.773 1250.17 635.161 1253.32 635.953 1262.05 638.16 1268.06 643.797 1271.19 652.71 1282.27 684.254 1255.34 747.877 1240.54 767.437 1229.83 781.592 1216.04 789.534 1201.71 789.798L1200.97 789.804C1186.71 789.804 1172.96 782.016 1162.26 767.87 1156.87 760.748 1152.75 752.123 1148.38 742.99 1139.23 723.862 1129.77 704.082 1107.88 698.915 1105.16 698.274 1102.71 697.959 1100.4 697.959 1092.38 697.959 1087.77 701.757 1082.42 706.155 1079.21 708.796 1075.89 711.526 1071.41 713.808 1065.85 716.643 1060.39 718.022 1054.7 718.022 1042.74 718.022 1032.04 711.973 1020.72 705.569 1009.47 699.202 997.826 692.621 984.887 692.621L984.068 692.63C977.731 692.765 972.383 694.084 967.206 695.358 962.411 696.538 957.879 697.652 953.087 697.652 948.318 697.652 943.891 696.564 939.145 694.22 937.149 693.235 935.265 692.177 933.446 691.154 928.328 688.276 923.494 685.557 917.847 685.557 914.867 685.557 911.867 686.299 908.68 687.825 906.161 689.029 903.29 691.881 900.248 694.903 895.407 699.712 889.914 705.164 884.747 705.164 883.517 705.164 882.369 704.866 881.248 704.247 877.199 702.018 875.144 697.962 875.134 692.187 875.114 678.593 886.582 660.298 893.522 656.45ZM880.452 705.688C881.81 706.431 883.254 706.809 884.747 706.809 890.592 706.809 896.341 701.103 901.405 696.071 904.346 693.151 907.125 690.394 909.388 689.309 912.354 687.891 915.117 687.201 917.847 687.201 923.066 687.201 927.5 689.697 932.64 692.584 934.479 693.621 936.38 694.69 938.419 695.7 943.329 698.12 948.127 699.297 953.087 699.297 958.08 699.297 962.704 698.162 967.598 696.952 972.686 695.702 977.948 694.407 984.101 694.275L984.887 694.266C997.392 694.266 1008.84 700.741 1019.91 706.996 1030.92 713.226 1042.31 719.666 1054.7 719.666 1060.65 719.666 1066.37 718.229 1072.16 715.275 1076.8 712.91 1080.34 709.996 1083.47 707.428 1088.57 703.228 1092.97 699.604 1100.4 699.604 1102.58 699.604 1104.9 699.903 1107.5 700.515 1128.62 705.503 1137.92 724.92 1146.9 743.701 1151.11 752.505 1155.47 761.606 1160.95 768.861 1171.96 783.427 1186.18 791.449 1200.97 791.449L1201.74 791.442C1216.59 791.17 1230.83 782.993 1241.85 768.426 1256.82 748.653 1284 684.227 1272.74 652.168 1269.42 642.699 1263.02 636.71 1253.72 634.362 1250.44 633.533 1247.4 633.128 1244.43 633.128 1234.81 633.128 1227.63 637.427 1219.31 642.396 1217.44 643.515 1215.5 644.676 1213.46 645.827 1196.59 655.378 1179.87 657.348 1162.17 659.439 1155.22 660.258 1148.04 661.107 1140.76 662.442 1132.66 663.932 1125.37 666.757 1118.33 669.487 1109.06 673.075 1100.3 676.472 1090.66 676.472 1084.15 676.472 1077.79 674.9 1071.23 671.674 1057.68 665.011 1042.9 658.844 1026.59 658.844 1021.18 658.844 1015.88 659.485 1010.38 660.801 1007.88 661.403 1005.43 662.024 1003.02 662.639 993.58 665.04 984.664 667.31 975.622 667.31 968.275 667.31 961.382 665.784 954.554 662.646L951.643 661.304C939.218 655.558 926.362 649.622 913.219 649.622 905.967 649.622 899.264 651.385 892.726 655.009 884.487 659.577 873.47 678.798 873.489 692.19 873.499 698.518 875.91 703.184 880.452 705.688Z" fill="#FFFFFF" fill-opacity="0.18"/><path d="M682.415 803.424C695.912 795.043 714.396 783.559 732.84 767.117 760.799 742.191 783.788 710.805 801.17 673.832 812.105 650.573 819.199 625.301 822.258 598.73 832.934 505.904 778.236 436.768 734.277 381.206 700.145 338.059 670.663 300.796 680.941 266.92 692.344 229.328 722.615 209.661 746.62 209.661 757.049 209.661 765.564 213.259 771.928 220.36 782.637 232.305 786.876 254.067 783.857 281.635 773.974 371.846 775.74 499.724 904.566 568.429 945.309 590.159 987.4 600.72 1033.24 600.72 1090.69 600.72 1142.45 584.035 1188.16 569.304 1221.89 558.431 1251.01 549.048 1274.21 549.048 1292.76 549.048 1312.05 554.208 1327.46 591.652 1363.63 679.466 1328.6 752.939 1304.5 788.919 1274.2 834.168 1223.15 870.983 1190.7 870.983 1182.03 870.983 1174.97 868.438 1169.72 863.416 1132.6 827.88 1098.05 805.289 1061.01 792.32 1029.12 781.164 993.958 776.402 943.444 776.402 888.954 776.402 832.227 785.227 783.712 801.246 725.946 820.325 688.946 821.808 678.981 821.808 674.278 821.808 670.578 821.523 668.555 821 665.526 820.22 663.902 819.259 663.731 818.145 663.296 815.297 671.318 810.318 682.415 803.424ZM668.309 821.957C670.41 822.499 674.199 822.795 678.981 822.795 688.983 822.795 726.117 821.308 784.022 802.184 832.444 786.193 889.059 777.389 943.444 777.389 1032.96 777.389 1092.44 790.801 1169.04 864.127 1174.48 869.33 1181.77 871.971 1190.7 871.971 1224 871.971 1274.34 835.733 1305.33 789.465 1329.53 753.325 1364.71 679.515 1328.38 591.28 1312.74 553.297 1293.1 548.058 1274.21 548.058 1250.86 548.058 1221.66 557.467 1187.81 568.38 1142.21 583.075 1090.54 599.733 1033.24 599.733 987.564 599.733 945.628 589.208 905.026 567.558 776.73 499.132 774.987 371.668 784.841 281.743 787.889 253.89 783.561 231.858 772.662 219.702 766.104 212.384 757.342 208.674 746.62 208.674 722.25 208.674 691.538 228.582 679.997 266.634 669.572 301.006 699.198 338.454 733.514 381.828 777.352 437.239 831.908 506.197 821.275 598.615 818.229 625.084 811.165 650.247 800.275 673.414 782.949 710.266 760.039 741.546 732.182 766.381 713.804 782.766 695.36 794.225 681.892 802.589 669.627 810.202 662.224 814.8 662.757 818.295 662.997 819.874 664.763 821.042 668.309 821.957Z" fill="#FFFFFF" fill-opacity="0.18"/><path d="M760.309 282.431C758.342 300.368 758.826 313.396 759.174 322.91 759.746 338.342 759.964 344.117 749.653 347.705 747.255 348.541 744.759 348.58 742.233 347.824 733.777 345.281 722.154 331.304 713.317 313.037 703.94 293.659 700.75 276.008 704.789 265.819 710.943 250.302 729.637 233.012 746.62 233.012 751.271 233.012 753.175 234.423 754.54 235.946 759.352 241.313 762.877 259.004 760.309 282.431ZM746.62 231.368C728.979 231.368 709.611 249.206 703.26 265.21 699.057 275.82 702.26 293.968 711.837 313.754 720.862 332.409 732.886 346.732 741.756 349.399 743.111 349.807 744.473 350.011 745.805 350.011 747.285 350.011 748.762 349.758 750.192 349.258 761.647 345.272 761.388 338.243 760.819 322.848 760.47 313.386 759.987 300.428 761.94 282.612 764.565 258.705 760.819 240.488 755.767 234.847 754.145 233.042 751.916 231.368 746.62 231.368Z" fill="#FFFFFF" fill-opacity="0.18"/><path d="M1146.6 697.745C1149.96 697.1 1153.17 696.492 1156.28 695.904 1174.11 692.529 1188.21 689.858 1209.13 684.067 1211.73 683.35 1213.98 682.984 1215.85 682.984 1218.33 682.984 1220.11 683.619 1221.16 684.872 1222.57 686.552 1222.48 689.105 1222.15 690.944 1218.92 709.043 1216.17 719.363 1208.35 732.67 1206.06 736.564 1203.89 739.155 1200.73 739.155 1198.11 739.155 1194.83 737.458 1190.7 733.962 1182.64 727.157 1171.17 719.688 1157.51 712.367 1156.18 711.653 1155.06 711.025 1154.02 710.44 1151.31 708.917 1149.16 707.717 1145.45 706.224 1142.98 705.231 1141.66 703.669 1141.83 701.949 1142.02 700.007 1144.02 698.242 1146.6 697.745ZM1144.74 707.983C1148.34 709.431 1150.44 710.608 1153.09 712.094 1154.14 712.683 1155.27 713.318 1156.62 714.038 1170.16 721.3 1181.52 728.69 1189.47 735.409 1193.96 739.208 1197.65 741.053 1200.73 741.053 1205.24 741.053 1207.87 737.224 1209.99 733.633 1217.95 720.073 1220.75 709.608 1224.02 691.279 1224.41 689.036 1224.49 685.894 1222.61 683.653 1220.24 680.817 1215.53 680.33 1208.63 682.238 1187.78 688.013 1173.72 690.671 1155.92 694.042 1152.81 694.627 1149.6 695.238 1146.24 695.883 1142.8 696.541 1140.21 698.962 1139.94 701.763 1139.82 703.005 1140.05 706.092 1144.74 707.983Z" fill="#FFFFFF" fill-opacity="0.18"/><path d="M840.031 711.348C846.192 698.139 854.624 680.048 862.074 656.17 866.198 642.936 866.724 631.388 867.106 622.956 867.569 612.665 867.829 606.998 873.581 606.998 876.673 606.998 881.419 608.606 888.52 612.066 910.591 622.821 974.636 645.031 1031.72 645.031 1032.85 645.031 1033.97 645.021 1035.1 645.004 1102.78 643.919 1165.15 625.626 1210.7 612.264 1234.94 605.153 1254.09 599.536 1267.83 598.134 1275.99 597.306 1282.62 601.897 1287.5 611.734 1304.84 646.603 1294.22 735.202 1259.16 781.523 1239.23 807.867 1217.92 822.976 1200.72 822.976 1193.18 822.976 1186.54 820.078 1180.97 814.369 1149.55 782.111 1083.88 745.91 1008.01 737.755 992.846 736.123 975.021 735.295 955.031 735.295 903.777 735.295 855.989 740.642 853.983 740.869 849.382 741.392 845.695 741.645 842.705 741.645 836.762 741.645 833.345 740.629 831.954 738.445 829.323 734.321 833.355 725.675 840.031 711.348ZM842.705 742.632C845.731 742.632 849.457 742.375 854.091 741.852 856.098 741.622 903.833 736.281 955.031 736.281 974.988 736.281 992.777 737.106 1007.9 738.734 1083.52 746.865 1148.96 782.927 1180.27 815.053 1186.03 820.964 1192.91 823.962 1200.72 823.962 1218.23 823.962 1239.83 808.713 1259.95 782.121 1295.19 735.548 1305.85 646.402 1288.39 611.293 1283.76 601.976 1277.28 597.052 1269.66 597.052 1269.02 597.052 1268.39 597.085 1267.73 597.154 1253.9 598.565 1234.71 604.193 1210.42 611.32 1164.93 624.663 1102.63 642.939 1035.08 644.018 977.362 644.968 911.391 622.114 888.947 611.178 881.616 607.603 876.877 606.011 873.581 606.011 866.882 606.011 866.599 612.372 866.119 622.916 865.737 631.29 865.218 642.765 861.126 655.874 853.703 679.689 845.284 697.745 839.14 710.93 832.322 725.563 828.205 734.393 831.122 738.978 832.737 741.504 836.309 742.632 842.705 742.632Z" fill="#FFFFFF" fill-opacity="0.18"/><path d="M774.787 758.33C809.356 724.562 832.013 687.914 842.12 649.408 850.247 618.447 847.918 594.533 846.922 584.318 846.708 582.091 846.55 580.477 846.563 579.523 846.655 571.916 849.872 571.034 852.279 571.034 857.699 571.034 866.869 576.296 877.485 582.387 883.083 585.601 889.427 589.238 896.025 592.576 938.632 614.132 980.95 623.742 1033.24 623.742 1094.32 623.742 1147.9 606.469 1195.18 591.228 1227.08 580.947 1254.64 572.07 1274.21 572.07 1283.73 572.07 1294.5 572.07 1306.18 600.417 1335.85 672.48 1306.76 732.15 1289.39 767.798 1287.95 770.745 1286.59 773.535 1285.34 776.172 1271.73 804.874 1225.95 852.471 1201.24 852.468 1197.41 852.468 1194.27 851.281 1191.89 848.941 1150.31 808.061 1107.27 781.287 1060.32 767.092 1018.48 754.438 979.638 753.38 943.444 753.38 879.511 753.38 825.994 761.165 779.835 777.175 775.859 778.553 772.044 779.313 769.1 779.313 766.873 779.313 764.048 778.882 763.213 776.83 762.43 774.909 762.891 769.953 774.787 758.33ZM769.1 780.3C772.155 780.3 776.079 779.524 780.154 778.105 826.212 762.131 879.62 754.367 943.444 754.367 1022.94 754.367 1101.7 761.651 1191.2 849.649 1193.77 852.175 1197.15 853.455 1201.24 853.455 1201.24 853.455 1201.24 853.455 1201.24 853.455 1226.28 853.455 1272.52 805.505 1286.23 776.596 1287.48 773.962 1288.84 771.173 1290.27 768.229 1307.72 732.43 1336.93 672.516 1307.09 600.042 1295.16 571.08 1284.03 571.08 1274.21 571.08 1254.48 571.08 1226.86 579.983 1194.87 590.291 1147.66 605.508 1094.16 622.755 1033.24 622.755 981.112 622.755 938.932 613.178 896.469 591.695 889.891 588.37 883.563 584.736 877.975 581.532 866.796 575.116 857.966 570.047 852.279 570.047 847.846 570.047 845.652 573.146 845.573 579.51 845.56 580.519 845.721 582.154 845.942 584.417 852.023 646.843 827.849 705.119 774.099 757.626 764.713 766.795 760.743 773.383 762.299 777.205 763.124 779.231 765.476 780.3 769.1 780.3Z" fill="#FFFFFF" fill-opacity="0.18"/><path d="M630.776 554.027C629.608 555.524 628.112 556.254 626.204 556.254 620.955 556.254 613.111 550.975 603.182 544.295 585.649 532.498 561.634 516.343 532.606 516.343 529.011 516.343 525.38 516.596 521.818 517.096 513.455 518.267 508.449 518.77 505.081 518.77 501.911 518.77 500.108 518.313 499.72 517.415 498.612 514.847 506.268 506.73 517.862 494.442L521.374 490.713C533.494 477.84 540.47 465.171 545.564 455.92 550.162 447.576 553.198 442.06 556.832 442.06 558.249 442.06 559.854 442.889 561.736 444.599 591.234 471.351 646.921 533.297 630.776 554.027ZM562.841 443.379C560.644 441.386 558.677 440.416 556.832 440.416 552.224 440.416 549.001 446.27 544.124 455.127 539.072 464.3 532.152 476.863 520.177 489.591L516.665 493.314C502.94 507.864 496.675 514.508 498.211 518.07 498.911 519.691 501.029 520.415 505.081 520.415 508.528 520.415 513.603 519.908 522.048 518.728 525.535 518.237 529.087 517.988 532.606 517.988 561.134 517.988 584.906 533.985 602.261 545.66 612.424 552.495 620.452 557.898 626.204 557.898 628.622 557.898 630.595 556.935 632.072 555.037 650.282 531.656 586.59 464.918 562.841 443.379Z" fill="#FFFFFF" fill-opacity="0.18"/><path d="M608.691 525.516C608.796 526.907 608.533 527.417 608.365 527.598 608.309 527.66 608.138 527.844 607.546 527.844 604.863 527.844 598.926 524.282 592.049 520.158 578.739 512.179 560.512 501.247 542.936 500.938 540.325 500.889 539.17 499.863 539.19 497.596 539.259 489.91 553.043 473.111 563.301 473.111 564.478 473.111 565.564 473.354 566.527 473.834 579.653 480.396 607.589 511.193 608.691 525.516ZM563.301 470.809C551.79 470.809 536.967 488.953 536.888 497.577 536.855 501.106 539.045 503.168 542.893 503.237 559.854 503.543 577.779 514.288 590.865 522.135 598.62 526.785 604.228 530.15 607.546 530.15 608.605 530.15 609.447 529.818 610.056 529.163 610.816 528.344 611.121 527.091 610.987 525.345 609.77 509.538 579.742 477.866 567.557 471.772 566.271 471.131 564.84 470.809 563.301 470.809Z" fill="#FFFFFF" fill-opacity="0.18"/><path d="M461.415 97.3025C440.57 85.8078 430.075 75.3821 429.325 65.4233 428.342 52.3368 443.806 40.4869 461.714 26.7624 467.581 22.2665 473.646 17.616 479.586 12.6004 516.826-18.8743 532.741-24.4127 552.412-24.4127 558.075-24.4127 564.002-23.9227 570.862-23.3602L574.082-23.0971C648.674-17.0784 702.888 12.5248 705.687 17.6555 706.253 18.6915 706.134 19.2144 705.996 19.5137 705.286 21.0726 701.158 21.9705 694.324 23.4538 678.925 26.8018 650.269 33.0277 607.293 57.0136 564.699 80.789 537.25 125.508 528.942 159.282 526.919 167.51 524.847 171.51 522.611 171.51 519.398 171.51 515.073 163.751 509.603 153.931 499.97 136.651 485.42 110.534 461.415 97.3025ZM522.608 172.496C522.611 172.496 522.611 172.496 522.611 172.496 525.446 172.496 527.696 168.494 529.899 159.518 538.157 125.952 565.436 81.506 607.773 57.8753 650.621 33.9618 679.185 27.7557 694.531 24.4174 702.151 22.7631 705.976 21.931 706.894 19.9215 707.249 19.1486 707.137 18.2541 706.552 17.1819 703.605 11.7815 650.509-17.9204 574.164-24.0805L570.941-24.3436C564.061-24.9093 558.118-25.3993 552.412-25.3993 532.497-25.3993 516.425-19.8247 478.948 11.844 473.031 16.8464 466.97 21.4903 461.112 25.9797 442.977 39.8752 427.319 51.8796 428.342 65.4957 429.128 75.9576 439.488 86.3374 460.941 98.1642 484.693 111.261 499.164 137.23 508.738 154.414 514.81 165.3 518.816 172.493 522.608 172.496Z" fill="#FFFFFF" fill-opacity="0.18"/><path d="M426.861 106.423C403.408 90.0012 392.338 76.5036 392.029 63.9433 391.637 48.0909 408.204 35.2346 429.177 18.9546 438.655 11.5974 448.46 3.99016 458.001-4.88327 496.54-40.719 515.855-51.6447 540.67-51.6447 545.127-51.6447 550.063-51.2895 555.763-50.5626 606.675-44.0736 659.715-28.5403 717.918-3.07767 731.725 2.96402 748.048 10.3081 764.397 18.9678 766.239 19.9413 769.057 21.1713 772.323 22.5954 783.157 27.3117 799.525 34.442 801.555 41.7433 802.127 43.7956 802.009 45.3677 801.209 46.4201 800.15 47.8113 798.032 48.104 796.44 48.104 793.007 48.104 788.837 46.7884 786.498 45.4893 783.453 43.7988 781.229 40.6514 779.075 37.6092 775.915 33.1396 772.649 28.522 766.646 28.0122 760.457 27.4695 758.378 30.6301 756.346 33.6592 754.981 35.6917 753.688 37.6124 751.208 38.5925 749.709 39.1845 748.334 39.4707 746.999 39.4707 743.473 39.4707 740.799 37.4019 737.967 35.2115 735.238 33.1034 732.419 30.9196 728.531 30.2322 727.762 30.0941 726.956 30.025 726.147 30.025 719.336 30.025 712.159 34.8597 705.22 39.5365 699.78 43.2003 694.643 46.6602 689.716 47.9593 664.339 54.6456 642.678 63.0586 623.488 73.6719 561.255 108.087 542.65 172.516 534.073 217.988 532.803 224.707 531.086 227.977 528.824 227.977 524.4 227.977 517.316 216.637 507.508 200.945 490.676 173.999 465.233 133.283 426.861 106.423ZM528.824 228.963C531.678 228.963 533.655 225.533 535.043 218.169 543.584 172.898 562.097 108.751 623.965 74.5368 643.083 63.9597 664.671 55.5797 689.966 48.9131 695.054 47.5712 700.504 43.9008 705.769 40.3521 712.587 35.7608 719.638 31.0116 726.147 31.0116 726.9 31.0116 727.644 31.0741 728.357 31.1991 732.008 31.847 734.731 33.9552 737.365 35.9911 740.332 38.29 743.134 40.4574 746.999 40.4574 748.462 40.4574 749.955 40.1482 751.567 39.5101 754.336 38.4182 755.773 36.2772 757.165 34.2085 759.135 31.2748 760.976 28.522 766.564 28.9956 772.106 29.4659 775.099 33.6987 778.269 38.1781 780.486 41.3124 782.775 44.552 786.018 46.3511 788.393 47.6699 792.668 49.0907 796.44 49.0907 799.081 49.0907 800.95 48.3935 801.995 47.0187 802.992 45.7064 803.163 43.8449 802.505 41.4769 800.351 33.725 783.722 26.4829 772.721 21.6877 769.472 20.2735 766.666 19.0533 764.861 18.0962 748.479 9.42015 732.139 2.06944 718.313-3.97882 660.024-29.4809 606.895-45.0406 555.888-51.5427 550.149-52.2761 545.169-52.6313 540.67-52.6313 515.56-52.6313 496.086-41.6432 457.33-5.60681 447.818 3.23702 438.034 10.8311 428.572 18.1752 407.378 34.6229 390.638 47.6173 391.042 63.9697 391.358 76.8687 402.563 90.6162 426.296 107.232 464.503 133.977 489.88 174.591 506.673 201.468 517.02 218.024 523.851 228.963 528.824 228.963Z" fill="#FFFFFF" fill-opacity="0.18"/><path d="M550.731 591.731C537.309 585.624 521.351 582.65 501.944 582.65 465.986 582.65 425.355 593.247 392.706 601.762 369.53 607.807 349.51 613.027 337.009 613.03 337.006 613.03 337.003 613.03 336.999 613.03 330.28 613.03 326.129 611.53 324.321 608.439 321.775 604.101 323.65 596.424 330.05 584.976 345.281 557.744 371.99 533.284 397.821 509.624 419.031 490.2 439.063 471.854 452.817 452.371 480.895 412.595 497.464 367.245 500.737 321.22 504.476 268.598 490.955 218.557 460.55 172.49 449.732 156.101 429.641 142.331 410.21 129.011 374.003 104.193 339.801 80.7529 365.113 42.9175 378.018 23.6282 389.769 16.4058 403.372 8.04218 411.946 2.77008 421.662-3.20258 432.837-13.0298 442.53-21.5546 450.321-29.8887 457.856-37.9497 477.27-58.7191 492.606-75.124 524.663-75.124 529.708-75.124 535.184-74.7128 540.94-73.8972 618.64-62.886 704.559-44.4814 806.261 15.1133 940.145 93.5697 1030.68 166.83 1068.33 289.456 1085.83 346.472 1079.34 409.474 1052.18 446.231 1036.3 467.72 1014.15 479.08 988.124 479.08 973.758 479.08 958.083 475.663 941.543 468.921 910.759 456.374 891.924 427.671 883.955 381.183 876.989 340.529 879.238 291.607 881.228 248.447 881.787 236.288 882.317 224.806 882.649 213.68 884.093 165.547 870.858 125.682 844.386 98.4044 820.278 73.5634 785.61 59.8849 746.762 59.8849 695.156 59.8849 642.882 83.0453 603.343 123.423 579.2 148.083 564.291 173.523 557.766 201.205 551.938 225.924 552.974 251.903 560.933 280.629 575.73 333.994 611.493 387.096 649.361 443.32 662.583 462.951 676.255 483.254 688.789 503.349 717.764 549.814 712.745 582.548 703.434 601.828 693.262 622.89 672.371 638.131 650.213 640.65 647.707 640.936 645.208 641.081 642.777 641.081 619.656 641.081 603.182 628.267 585.738 614.707 575.003 606.357 563.9 597.723 550.731 591.731ZM650.325 641.633C672.811 639.075 694.005 623.617 704.322 602.255 713.741 582.756 718.839 549.673 689.627 502.829 677.084 482.718 663.405 462.409 650.18 442.767 612.358 386.616 576.634 333.576 561.887 280.365 545.202 220.179 558.601 170.53 604.05 124.114 643.402 83.9233 695.419 60.8715 746.762 60.8715 785.341 60.8715 819.759 74.4448 843.679 99.0917 869.964 126.176 883.096 165.787 881.662 213.654 881.33 224.77 880.801 236.248 880.241 248.401 878.255 291.613 875.999 340.591 882.981 381.344 891.009 428.201 910.042 457.146 941.168 469.835 957.83 476.627 973.629 480.067 988.124 480.067 1014.47 480.067 1036.9 468.569 1052.97 446.816 1080.31 409.823 1086.86 346.469 1069.27 289.166 1031.53 166.234 940.849 92.8395 806.761 14.2647 704.911-45.4188 618.877-63.8464 541.078-74.8707 535.28-75.6929 529.758-76.1106 524.663-76.1106 492.176-76.1106 476.714-59.5675 457.136-38.6239 449.617-30.5793 441.842-22.2617 432.186-13.7731 421.073-3.99847 411.394 1.95111 402.856 7.20349 389.154 15.6263 377.318 22.9013 364.294 42.3715 338.44 81.016 373.029 104.726 409.651 129.826 429.003 143.091 449.015 156.805 459.727 173.033 527.087 275.087 499.908 383.949 452.012 451.799 438.32 471.2 418.324 489.509 397.156 508.9 371.266 532.61 344.498 557.125 329.191 584.495 322.604 596.276 320.729 604.272 323.469 608.942 325.472 612.356 329.899 614.017 336.999 614.017 337.003 614.017 337.006 614.017 337.009 614.017 349.638 614.013 369.711 608.781 392.953 602.716 425.549 594.217 466.114 583.637 501.944 583.637 520.937 583.637 537.217 586.663 550.323 592.632 563.387 598.575 574.441 607.172 585.129 615.483 602.712 629.155 619.317 642.067 642.777 642.067 645.244 642.067 647.783 641.923 650.325 641.633Z" fill="#FFFFFF" fill-opacity="0.18"/><path d="M551.306 566.726C542.555 561.973 530.468 559.664 514.356 559.664 493.869 559.664 470.304 563.447 449.512 566.778 432.436 569.518 417.689 571.883 407.151 571.883L407.148 571.883C400.652 571.883 396.393 570.965 394.124 569.08 394.101 569.057 394.022 568.995 394.006 568.768 393.601 563.588 420.369 533.1 448.71 500.823 484.713 459.824 525.518 413.348 527.301 400.203 528.294 392.875 525.232 387.3 522.272 381.906 519.095 376.128 516.096 370.665 517.73 363.196 518.993 357.421 522.417 354.181 526.044 350.751 530.78 346.271 535.674 341.644 535.809 331.077 535.862 326.929 532.823 319.898 529.304 311.754 526.038 304.2 522.338 295.639 520.733 288.269 518.852 279.619 520.194 274.07 524.837 271.311 525.808 270.735 526.781 270.446 527.732 270.446 539.098 270.446 547.718 310.649 552.349 332.251 553.905 339.509 555.029 344.752 555.829 346.778 571.494 386.294 603.442 427.102 635.637 465.313 661.264 495.725 689.815 542.605 685.924 574.635 684.618 585.393 679.701 593.944 671.311 600.049 664.635 604.906 656.498 607.366 647.122 607.366 621.551 607.366 591.151 589.702 566.725 575.507 561.209 572.3 556.003 569.274 551.306 566.726ZM671.89 600.848C680.51 594.576 685.562 585.795 686.904 574.754 690.831 542.408 662.145 495.238 636.39 464.675 604.251 426.53 572.359 385.801 556.75 346.409 555.977 344.466 554.799 338.986 553.313 332.044 548.294 308.637 539.894 269.456 527.732 269.456 526.604 269.456 525.459 269.795 524.334 270.466 519.279 273.469 517.786 279.362 519.769 288.479 521.394 295.941 525.114 304.552 528.396 312.146 531.872 320.184 534.872 327.127 534.823 331.064 534.694 341.213 529.955 345.699 525.367 350.034 521.792 353.415 518.092 356.914 516.767 362.982 515.053 370.813 518.283 376.694 521.407 382.383 524.288 387.636 527.271 393.066 526.324 400.068 524.581 412.921 483.878 459.278 447.966 500.175 418.251 534.018 392.585 563.249 393.022 568.844 393.055 569.271 393.213 569.607 393.496 569.837 395.946 571.876 400.412 572.869 407.148 572.869L407.151 572.869C417.768 572.869 432.551 570.498 449.67 567.752 470.423 564.423 493.948 560.651 514.356 560.651 530.3 560.651 542.232 562.92 550.833 567.591 555.52 570.136 560.723 573.159 566.228 576.355 590.757 590.613 621.287 608.353 647.122 608.353 656.709 608.353 665.043 605.827 671.89 600.848Z" fill="#FFFFFF" fill-opacity="0.18"/><path d="M632.309 581.374C632.305 581.374 632.305 581.374 632.302 581.374 611.957 581.374 585.846 566.726 568.195 553.017 555.381 543.065 539.746 538.231 520.391 538.231 506.242 538.231 492.468 540.757 480.316 542.986 471.035 544.687 463.02 546.16 456.721 546.16 451.337 546.16 447.825 545.091 445.664 542.786 444.714 541.773 444.286 540.687 444.358 539.467 444.645 534.725 452.4 528.232 463.138 519.241 489.127 497.478 532.626 461.057 539.848 393.694 540.713 385.646 542.042 382.054 544.16 382.054 547.748 382.054 554.322 391.105 565.215 406.106 576.772 422.018 594.24 446.066 619.301 474.288 633.72 490.525 662.553 532.709 659.659 559.467 658.883 566.614 655.85 572.156 650.647 575.941 645.691 579.546 639.521 581.374 632.309 581.374ZM660.636 559.572C663.573 532.488 634.552 489.976 620.038 473.634 595.009 445.448 577.558 421.422 566.011 405.524 554.559 389.754 548.251 381.064 544.16 381.064 541.354 381.064 539.825 384.695 538.871 393.592 531.685 460.554 488.38 496.817 462.507 518.484 451.173 527.973 443.684 534.241 443.375 539.408 443.286 540.891 443.812 542.256 444.944 543.46 447.305 545.976 451.045 547.15 456.721 547.15 463.105 547.15 471.166 545.667 480.493 543.957 492.603 541.733 506.331 539.214 520.391 539.214 539.519 539.214 554.957 543.986 567.59 553.794 585.373 567.604 611.71 582.361 632.302 582.361 632.305 582.361 632.305 582.361 632.309 582.361 639.732 582.361 646.102 580.47 651.23 576.74 656.666 572.78 659.833 567.008 660.636 559.572Z" fill="#FFFFFF" fill-opacity="0.18"/><path d="M941.411 193.216C941.576 193.032 941.754 192.957 941.994 192.957 942.447 192.957 943.329 193.236 944.944 194.568 954.251 202.254 1030.08 294.254 1007.82 381.518 1004.53 394.391 997.901 401.479 989.146 401.479L989.143 401.479C982.812 401.475 975.731 397.634 969.203 390.658 954.478 374.927 939.941 339.976 943.293 289.064 945.276 258.942 943.049 233.384 941.569 216.469 940.487 204.05 939.705 195.078 941.411 193.216ZM941.655 288.956C938.264 340.394 953.044 375.799 968.002 391.78 974.846 399.094 982.355 403.12 989.143 403.123L989.146 403.123C998.72 403.123 1005.92 395.595 1009.41 381.923 1031.88 293.869 955.383 201.054 945.99 193.299 943.28 191.065 941.411 190.776 940.195 192.105 938.001 194.499 938.688 202.353 939.931 216.61 941.405 233.476 943.628 258.958 941.655 288.956Z" fill="#FFFFFF" fill-opacity="0.18"/><path d="M913.541 141.403C913.854 141.051 914.258 140.887 914.824 140.887 916.88 140.887 920.698 143.153 925.802 146.554 959.178 168.806 1047.87 270.262 1022.87 383.225 1018.23 404.182 1002.67 417.719 983.223 417.719 969.525 417.719 955.833 411.079 944.667 399.028 923.151 375.802 913.387 335.685 917.179 286.062 922.04 222.51 916.942 182.491 914.202 160.995 912.791 149.912 911.94 143.222 913.541 141.403ZM916.199 285.983C912.38 335.885 922.234 376.269 943.944 399.703 955.297 411.957 969.248 418.706 983.223 418.706 983.223 418.706 983.223 418.706 983.226 418.706 1003.15 418.706 1019.09 404.863 1023.83 383.436 1037.68 320.829 1016.25 264.503 995.829 228.273 971.83 185.701 941.129 155.585 926.345 145.731 920.948 142.13 917.136 139.9 914.824 139.9 913.979 139.9 913.301 140.186 912.801 140.752 910.904 142.906 911.68 148.994 913.222 161.12 915.959 182.583 921.047 222.533 916.199 285.983Z" fill="#FFFFFF" fill-opacity="0.18"/><path d="M886.97 98.1477C887.24 97.8221 887.608 97.6708 888.138 97.6708 890.792 97.6708 896.554 101.414 906.099 107.61 990.031 162.087 1070.45 263.03 1044.47 382.939 1036.08 421.679 1008.89 447.704 976.81 447.701 960.076 447.701 944.398 440.432 931.462 426.688 906.276 399.913 894.486 351.113 898.258 289.275 903.888 196.956 893.719 143.169 888.829 117.322 886.77 106.446 885.53 99.881 886.97 98.1477ZM897.274 289.219C893.482 351.326 905.372 400.387 930.742 427.362 943.871 441.314 959.796 448.687 976.81 448.687L976.813 448.687C1009.37 448.687 1036.94 422.35 1045.44 383.15 1057.97 325.315 1047.2 268.391 1013.42 213.95 979.194 158.798 931.824 123.133 906.638 106.781 893.811 98.4536 888.316 94.9871 886.207 97.5163 884.474 99.6113 885.606 105.591 887.858 117.506 892.742 143.314 902.898 197.018 897.274 289.219Z" fill="#FFFFFF" fill-opacity="0.18"/><path d="M492.13 57.6779C499.013 38.5596 559.772 12.3669 588.902 12.3669 589.921 12.3669 590.908 12.3965 591.852 12.459 597.558 12.8471 600.068 13.2582 601.107 13.5871 599.873 14.4422 596.631 15.8597 593.477 17.2378 579.232 23.4702 552.714 35.0701 539.864 59.3388 531.78 74.6124 525.87 80.562 518.783 80.562 513.014 80.562 505.949 76.7535 495.165 67.8308 491.695 64.9596 490.702 61.6377 492.13 57.6779ZM518.786 82.8643C528.107 82.8643 534.767 73.8922 541.9 60.4143 554.372 36.856 580.41 25.4665 594.397 19.3492 601.482 16.2511 604.133 15.0901 603.794 13.1497 603.511 11.5184 601.689 10.8244 592.01 10.1634 562.877 8.18673 497.5 35.968 489.962 56.8952 488.219 61.743 489.508 66.1369 493.698 69.6034 504.93 78.8978 512.432 82.8643 518.783 82.8643 518.783 82.8643 518.783 82.8643 518.786 82.8643Z" fill="#FFFFFF" fill-opacity="0.18"/><path d="M504.69 103.992C498.99 90.3992 487.476 84.6601 477.316 79.6018 468.371 75.1454 460.645 71.2973 459.527 63.0883 459.099 59.9671 461.145 55.5502 465.443 50.3176 483.184 28.7063 532.458-0.49249 553.316-1.75871 558.605-2.07773 563.916-2.24216 569.116-2.24216 614.66-2.24216 645.02 10.3608 645.642 15.679 645.744 16.5242 644.356 16.9814 643.52 17.1787 610.036 25.1115 568.685 39.5168 545.969 80.8943 527.09 115.276 512.915 123.601 504.69 103.992ZM547.409 81.6836C569.813 40.8784 610.747 26.6309 643.902 18.7771 647.085 18.0239 647.381 16.3926 647.276 15.4882 646.5 8.83807 615.456-3.88661 569.116-3.88661 563.886-3.88661 558.535-3.72217 553.217-3.39657 532.043-2.1139 482.112 27.4203 464.174 49.2749 459.514 54.9515 457.402 59.6744 457.896 63.312 459.132 72.3827 467.219 76.4116 476.583 81.0752 486.486 86.0053 497.711 91.5963 503.177 104.63 506.357 112.218 510.534 116.066 515.592 116.066 524.18 116.066 534.885 104.499 547.409 81.6836Z" fill="#FFFFFF" fill-opacity="0.18"/><path d="M968.147 283.71C968.995 282.253 969.906 281.378 970.581 281.378 971.176 281.378 971.761 282.112 972.054 282.552 988.314 306.762 988.666 347.765 982.644 359.055 981.832 360.581 980.944 361.423 980.151 361.423 979.125 361.42 977.787 360.101 976.478 357.806 959.767 328.518 962.171 294.001 968.147 283.71ZM980.148 363.722C980.151 363.722 980.151 363.722 980.151 363.722 981.884 363.722 983.407 362.519 984.677 360.137 991.08 348.133 990.962 306.568 973.968 281.27 971.758 277.987 968.558 278.412 966.157 282.552 959.773 293.547 957.093 328.479 974.478 358.95 976.283 362.117 978.194 363.722 980.148 363.722Z" fill="#FFFFFF" fill-opacity="0.18"/><path d="M1194.07 464.639C1196.42 468.019 1202.15 469.463 1213.23 469.463 1220.16 469.46 1228.44 468.911 1238.01 468.273 1249.87 467.483 1263.3 466.586 1277.19 466.586 1321.17 466.586 1350.83 475.929 1370.6 496.067 1388.99 510.209 1399.13 533.268 1408.08 553.61 1418.95 578.335 1428.34 599.69 1449.08 599.69 1451.28 599.69 1453.6 599.44 1455.99 598.95 1457.58 598.621 1459.26 598.19 1461 597.661L1461 595.934C1459.14 596.52 1457.35 596.99 1455.66 597.335 1453.38 597.806 1451.17 598.046 1449.08 598.046 1429.41 598.046 1420.22 577.148 1409.58 552.948 1400.55 532.426 1390.32 509.163 1371.69 494.84 1351.67 474.443 1321.64 464.941 1277.19 464.941 1263.25 464.941 1249.78 465.839 1237.9 466.632 1228.36 467.266 1220.11 467.816 1213.23 467.819 1203.03 467.819 1197.38 466.51 1195.43 463.701 1194.36 462.165 1194.34 460.083 1195.37 457.334 1216.3 401.4 1233.82 330.597 1232.12 308.788 1229.16 270.607 1212.37 234.528 1196.14 199.643 1176.29 156.979 1157.53 116.684 1169.45 83.0781 1186.01 36.3693 1261.66-44.7117 1302.63-50.2995 1304.58-50.5659 1306.79-50.7007 1309.17-50.7007 1341.07-50.7007 1397.29-27.8594 1461 9.91022L1461 8.00262C1397.36-29.6124 1341.19-52.3452 1309.17-52.3452 1306.71-52.3452 1304.44-52.2037 1302.4-51.9275 1260.98-46.2772 1184.59 35.455 1167.9 82.5256 1155.76 116.766 1174.65 157.361 1194.65 200.337 1210.82 235.091 1227.54 271.028 1230.48 308.916 1231.96 328.018 1216.28 396.759 1193.83 456.755 1192.6 460.047 1192.68 462.626 1194.07 464.639Z" fill="#FFFFFF" fill-opacity="0.18"/><path d="M1243.74 421.797C1249.86 430.592 1262.78 431.582 1280.66 432.95 1282.6 433.098 1284.59 433.253 1286.65 433.417 1292.3 433.881 1298.22 434.085 1304.49 434.298 1333.56 435.295 1366.52 436.42 1396.27 463.523L1396.64 463.846C1413.14 478.297 1422.96 503.753 1431.62 526.21 1440.35 548.834 1447.89 568.377 1459.87 568.377 1460.24 568.377 1460.62 568.298 1461 568.261L1461 567.268C1460.62 567.311 1460.24 567.39 1459.87 567.39 1448.57 567.39 1441.14 548.14 1432.54 525.858 1423.84 503.289 1413.97 477.715 1397.29 463.109L1396.94 462.79C1366.92 435.446 1333.77 434.312 1304.52 433.312 1298.27 433.098 1292.36 432.894 1286.73 432.437 1284.68 432.269 1282.67 432.115 1280.73 431.967 1263.12 430.618 1250.4 429.645 1244.55 421.232 1239.01 413.266 1239.79 398.351 1247.1 372.882 1253.86 349.31 1256.36 327.771 1254.74 307.032 1251.46 264.763 1233.8 226.802 1216.71 190.069 1198.88 151.734 1182.03 115.523 1190.84 90.6589 1205.52 49.2617 1276.36-23.8109 1305.69-27.8135 1306.35-27.9023 1307.48-28.0075 1309.17-28.0075 1333.67-28.0075 1389.11-7.6131 1461 36.412L1461 35.2543C1389.18-8.6524 1333.74-28.9942 1309.17-28.9942 1307.43-28.9942 1306.24-28.8823 1305.56-28.7902 1276-24.7614 1204.66 48.7157 1189.91 90.33 1180.96 115.572 1197.89 151.961 1215.83 190.506 1232.87 227.138 1250.49 265.016 1253.76 307.107 1255.37 327.729 1252.88 349.156 1246.15 372.612 1238.65 398.739 1237.94 413.45 1243.74 421.797Z" fill="#FFFFFF" fill-opacity="0.18"/><path d="M523.088 657.489C519.809 656.516 515.888 656.042 511.106 656.042 490.909 656.042 459.668 664.61 423.494 674.535 377.883 687.046 326.189 701.225 284.32 701.228 255.87 701.228 235.609 694.768 222.381 681.478 210.271 669.313 204.188 651.01 204.3 627.08 204.498 585.137 261.076 539.046 310.994 498.376 340.748 474.137 368.855 451.24 382.656 431.391 411.019 390.592 436.093 346.419 427.562 299.849 422.599 272.761 407.177 256.705 390.851 239.711 381.85 230.338 372.539 220.649 364.665 208.691 357.331 197.558 353.434 187.596 349.997 178.808 343.222 161.488 337.871 147.813 311.645 135.713 303.871 132.128 297.77 129.524 292.87 127.432 273.864 119.312 273.864 119.312 266.376 99.7166 264.797 95.5758 262.889 90.5833 260.415 84.4857 250.86 60.9142 243.394 56.3032 233.732 56.3032 231.68 56.3032 229.578 56.5071 227.353 56.7209 224.876 56.9577 222.315 57.2076 219.528 57.2076 213.42 57.2076 204.917 56.1749 193.276 48.1204 184.379 41.9669 180.641 36.3726 182.163 31.4985 188.154 12.3078 271.85 5.12469 288.493 5.12469 288.895 5.12469 289.166 5.12811 289.3 5.14783L289.56 4.08551 290.067 5.09515C301.002-0.43018 306.931-7.5144 312.665-14.3652 320.292-23.4787 327.498-32.0889 345.787-37.9169 352.292-39.9921 357.798-41.584 362.222-42.8633 386.115-49.7733 386.438-50.122 396.692-80.2844L397.988-84.0962C399.902-89.7103 398.357-93.6768 396.992-97.176 395.226-101.708 393.7-105.622 399.81-112.792 403.073-116.61 414.778-121.132 425.108-125.125 432.071-127.815 438.652-130.358 442.161-132.492 447.628-135.817 451.344-140.333 454.935-144.701 459.599-150.367 464-155.718 471.946-158.563 477.306-160.484 483.911-161.458 491.57-161.458 511.06-161.458 533.974-155.37 552.385-150.479 556.602-149.358 560.548-148.312 564.123-147.424 623.912-132.617 680.803-105.704 735.823-79.6791L741.49-76.9955C872.233-15.1907 971.041 53.9122 1043.56 134.253 1092.25 188.194 1123.68 240.734 1139.64 294.873 1158.37 358.46 1144.92 436.009 1106.15 487.848 1086.04 514.751 1050.32 546.818 994.425 546.821 979.967 546.825 964.881 544.581 949.594 540.161 816.286 501.606 820.683 370.142 835.266 249.946 839.624 214.022 832.885 184.823 815.766 165.504 801.292 149.168 779.411 140.17 754.152 140.17 707.706 140.17 648.444 172.105 630.092 231.289 609.053 299.148 653.953 356.987 697.369 412.921 743.657 472.548 791.517 534.202 764.788 610.218 749.367 654.065 691.952 711.444 643.79 716.929 641.106 717.231 638.429 717.386 635.824 717.386 610.27 717.386 592.145 702.889 572.957 687.536 558.078 675.634 542.69 663.324 523.088 657.489ZM644.05 719.215C693.005 713.641 751.32 655.447 766.962 610.984 794.109 533.781 745.854 471.624 699.191 411.51 654.15 353.49 611.608 298.688 632.292 231.969 650.315 173.838 708.529 142.469 754.152 142.469 778.743 142.469 800.009 151.194 814.043 167.034 830.707 185.843 837.259 214.417 832.98 249.67 818.279 370.803 813.908 503.313 948.953 542.368 964.45 546.854 979.75 549.123 994.425 549.123 1051.28 549.12 1087.57 516.55 1108 489.226 1147.17 436.837 1160.78 358.47 1141.85 294.225 1125.79 239.744 1094.2 186.915 1045.27 132.711 972.541 52.1395 873.496-17.1378 742.473-79.0775L736.806-81.761C681.685-107.832 624.688-134.798 564.676-149.66 561.114-150.542 557.177-151.588 552.977-152.702 534.438-157.629 511.363-163.76 491.57-163.76 483.644-163.76 476.78-162.74 471.169-160.731 462.625-157.669 457.813-151.821 453.156-146.164 449.686-141.945 446.098-137.583 440.964-134.459 437.629-132.43 431.144-129.924 424.276-127.273 413.176-122.984 401.698-118.551 398.061-114.285 391.055-106.069 392.983-101.123 394.847-96.3407 396.186-92.9038 397.452-89.6577 395.808-84.8362L394.512-81.0276C384.547-51.7137 384.547-51.7138 361.58-45.0735 357.144-43.7909 351.622-42.1926 345.087-40.1107 326.159-34.0822 318.4-24.8074 310.899-15.842 305.128-8.9451 299.673-2.42981 289.404 2.84882 289.128 2.82251 288.821 2.82251 288.493 2.82251 276.641 2.82251 186.857 8.73267 179.965 30.811 178.108 36.7606 182.146 43.22 191.965 50.0148 204.268 58.5264 213.587 59.5099 219.528 59.5099 222.425 59.5099 225.042 59.2566 227.576 59.0132 229.743 58.8027 231.791 58.6054 233.732 58.6054 240.956 58.6054 248.267 60.6511 258.283 85.3507 260.748 91.4285 262.65 96.4112 264.226 100.539 271.988 120.854 272.247 121.127 291.966 129.547 296.854 131.635 302.937 134.233 310.681 137.805 336.065 149.514 341.265 162.811 347.849 179.646 351.332 188.54 355.275 198.623 362.741 209.957 370.733 222.089 380.116 231.858 389.191 241.303 405.273 258.044 420.461 273.857 425.299 300.266 433.676 346.005 408.845 389.688 380.764 430.076 367.148 449.661 339.167 472.456 309.54 496.593 259.227 537.579 202.202 584.038 201.998 627.067 201.882 651.635 208.191 670.487 220.75 683.103 234.432 696.851 255.225 703.53 284.32 703.53 326.501 703.527 378.354 689.303 424.102 676.755 460.115 666.876 491.218 658.344 511.106 658.344 515.599 658.344 519.411 658.801 522.43 659.699 541.604 665.402 556.812 677.568 571.52 689.335 591.033 704.944 609.464 719.688 635.824 719.688 638.515 719.688 641.284 719.531 644.05 719.215Z" fill="#FFFFFF" fill-opacity="0.18"/><path d="M944.569-227.692C933.419-219.819 918.152-215.99 897.903-215.99 874.111-215.987 847.501-221.318 824.021-226.022 810.182-228.791 797.111-231.409 786.436-232.547 781.206-233.103 767.173-234.398 749.876-234.398 717.836-234.398 676.745-230.057 662.938-209.373 656.932-200.381 656.686-189.081 662.205-175.784 664.799-169.541 671.502-166.151 677.985-162.872 683.112-160.277 688.417-157.593 691.357-153.59 694.847-148.844 696.906-142.198 698.895-135.768 701.546-127.207 704.286-118.353 710.512-113.124 718.231-106.638 726.7-103.619 737.171-103.619 744.437-103.619 751.869-105.089 759.052-106.507 766.153-107.911 773.494-109.361 780.585-109.361 787.389-109.361 793.313-108.013 798.697-105.24 811.77-98.501 817.269-89.4307 822.59-80.6592 829.523-69.2205 836.072-58.4165 857.66-53.3647 902.826-42.7943 915.206-31.7535 945.111-5.07405 948.966-1.63388 953.11 2.05957 957.649 6.0424 968.413 15.4914 976.366 26.2757 984.049 36.7047 990.906 46.009 998 55.6323 1007.12 64.4169 1018.35 75.2242 1028.93 80.0326 1039.15 84.6831 1052.78 90.8793 1065.65 96.7335 1077.33 116.786L1079.15 119.93C1093.84 145.337 1108.7 168.846 1117.82 168.846 1119.29 168.846 1120.56 168.27 1121.59 167.135 1124.89 163.534 1125.77 153.96 1124.32 137.868 1123.46 128.435 1116.65 120.009 1110.06 111.856 1102.95 103.068 1096.24 94.7635 1096.64 85.5908 1097.12 74.5895 1103.77 69.1759 1110.81 63.4467 1115.97 59.2534 1121.29 54.9153 1124.42 48.1994 1131.91 32.0641 1133.73 17.6094 1135.48 3.63492 1137.93-15.8189 1140.23-34.1939 1157.65-54.9829 1188.81-92.177 1232.52-120.274 1280.72-134.1 1296.78-138.705 1311.65-140.945 1326.16-140.945 1375.41-140.945 1410.75-114.153 1448.17-85.7899 1452.4-82.5767 1456.68-79.347 1461-76.1239L1461-78.9984C1457.16-81.8762 1453.34-84.7572 1449.55-87.6219 1411.82-116.229 1376.19-143.247 1326.16-143.247 1311.43-143.247 1296.36-140.977 1280.09-136.314 1231.45-122.362 1187.33-94.0023 1155.88-56.4597 1138.03-35.1542 1135.69-16.4536 1133.2 3.34554 1131.47 17.149 1129.67 31.4195 1122.33 47.2292 1119.43 53.4649 1114.31 57.632 1109.36 61.6608 1102.23 67.4592 1094.86 73.4548 1094.34 85.4888 1093.9 95.5331 1101.2 104.568 1108.26 113.303 1114.64 121.186 1121.23 129.34 1122.02 138.075 1123.74 157.006 1121.81 163.482 1119.89 165.583 1119.29 166.238 1118.64 166.543 1117.82 166.543 1108.77 166.543 1089.41 133.072 1081.15 118.779L1079.32 115.625C1067.27 94.9411 1054.08 88.9421 1040.1 82.588 1030.06 78.0164 1019.66 73.2903 1008.72 62.7593 999.74 54.1095 992.702 44.5685 985.904 35.3399 978.142 24.8121 970.12 13.9259 959.165 4.31245 954.636 0.33618 950.495-3.35724 946.644-6.79413 916.429-33.7466 903.921-44.9025 858.186-55.6078 837.542-60.4392 831.234-70.8387 824.557-81.8531 819.071-90.8976 813.405-100.251 799.749-107.286 794.033-110.233 787.764-111.664 780.585-111.664 773.27-111.664 765.814-110.19 758.608-108.766 751.527-107.365 744.213-105.921 737.171-105.921 727.272-105.921 719.273-108.769 711.992-114.887 706.286-119.682 703.648-128.203 701.096-136.449 699.05-143.059 696.932-149.897 693.212-154.955 689.95-159.399 684.395-162.207 679.024-164.927 672.634-168.157 666.598-171.212 664.332-176.669 659.126-189.209 659.3-199.783 664.852-208.097 678.093-227.932 718.399-232.096 749.876-232.096 767.064-232.096 780.999-230.81 786.192-230.258 796.76-229.13 809.784-226.521 823.567-223.762 847.152-219.039 873.881-213.685 897.903-213.688 918.646-213.688 934.344-217.655 945.901-225.811 974.682-246.163 966.427-276.851 958.441-306.53 949.913-338.235 941.099-371.022 976.55-392.413 980.799-394.978 986.482-396.281 993.435-396.281 1014.63-396.281 1044.5-384.691 1073.38-373.482 1098.53-363.721 1122.29-354.502 1137.74-354.137 1139.97-354.084 1142.18-354.061 1144.41-354.061 1144.42-354.061 1144.43-354.061 1144.44-354.061 1177.66-354.061 1211.24-359.787 1243.72-365.329 1276.13-370.858 1309.66-376.574 1342.76-376.574 1365.91-376.574 1386.82-373.821 1406.66-368.154 1425.01-362.915 1443.12-356.002 1461-348.085L1461-350.595C1443.34-358.376 1425.44-365.184 1407.29-370.368 1387.24-376.094 1366.13-378.879 1342.76-378.879 1309.46-378.879 1275.84-373.143 1243.33-367.598 1210.95-362.076 1177.46-356.364 1144.44-356.364 1142.18-356.291 1140.01-356.387 1137.79-356.439 1122.74-356.794 1099.17-365.941 1074.21-375.63 1045.13-386.914 1015.07-398.58 993.435-398.58 985.953-398.58 980.039-397.208 975.363-394.386 938.422-372.098 947.47-338.462 956.221-305.935 964.355-275.684 972.041-247.113 944.569-227.692Z" fill="#FFFFFF" fill-opacity="0.18"/><path d="M-2 3 1278 3 1278 723-2 723Z" fill="url(#fill4)"/><path d="M1278 723-2 723-2 3 1278 3Z" fill="url(#fill5)"/></g></g></g><g><g><g><path d="M482.5 376 397 376 395 376 395 378 395 588 395 590 397 590 883 590 885 590 885 588 885 378 885 376 883 376 796.333 376 796.333 378 883 378 883 588 397 588 397 378 482.5 378 482.5 376Z" fill="#FFFFFF" fill-rule="evenodd" fill-opacity="0.4"/></g></g></g><g><g><g><path d="M243.5 0C254.822-3.55271e-15 264 9.17816 264 20.5L264 20.5C264 31.8218 254.822 41 243.5 41L20.5 41C9.17816 41 0 31.8218 0 20.5L0 20.5C0 9.17816 9.17816-3.55271e-15 20.5-7.10543e-15Z" fill="#EE8640" transform="matrix(1.13636 0 0 1 486 429)"/></g></g></g><g><g><g><path d="M243.5 0C254.822-3.55271e-15 264 9.17816 264 20.5L264 20.5C264 31.8218 254.822 41 243.5 41L20.5 41C9.17816 41 0 31.8218 0 20.5L0 20.5C0 9.17816 9.17816-3.55271e-15 20.5-7.10543e-15Z" fill="#EE8640" transform="matrix(1.13636 0 0 1 490 496)"/></g></g></g><text fill="#FFFFFF" font-family="Verdana,Verdana_MSFontService,sans-serif" font-weight="700" font-size="18" transform="translate(555.317 455)">Metas de Ventas</text><text fill="#FFFFFF" font-family="Verdana,Verdana_MSFontService,sans-serif" font-weight="700" font-size="18" transform="translate(518.793 522)">Visin</text><text fill="#FFFFFF" font-family="Verdana,Verdana_MSFontService,sans-serif" font-weight="700" font-size="18" transform="translate(584.959 522)">G</text><text fill="#FFFFFF" font-family="Verdana,Verdana_MSFontService,sans-serif" font-weight="700" font-size="18" transform="translate(598.626 522)">eneral</text><text fill="#FFFFFF" font-family="Verdana,Verdana_MSFontService,sans-serif" font-weight="700" font-size="18" transform="translate(666.959 522)">de</text><text fill="#FFFFFF" font-family="Verdana,Verdana_MSFontService,sans-serif" font-weight="700" font-size="18" transform="translate(694.793 522)">Ventas</text><text fill="#FFFFFF" font-family="Verdana,Verdana_MSFontService,sans-serif" font-weight="400" font-size="22" transform="translate(522.6 384)">Selecione una opcin</text><text fill="#FFFFFF" font-family="Verdana,Verdana_MSFontService,sans-serif" font-weight="700" font-size="28" transform="translate(439.97 222)">Empower JMK Consulting</text><text fill="#FAA46A" font-family="Verdana Pro Black,Verdana Pro Black_MSFontService,sans-serif" font-weight="900" font-size="36" transform="translate(271.473 166)">Seguimiento</text><text fill="#FAA46A" font-family="Verdana Pro Black,Verdana Pro Black_MSFontService,sans-serif" font-weight="900" font-size="36" transform="translate(548.053 166)">Estratgico</text><text fill="#FAA46A" font-family="Verdana Pro Black,Verdana Pro Black_MSFontService,sans-serif" font-weight="900" font-size="36" transform="translate(799.966 166)">de Ventas</text></g></svg>